<svg xmlns="http://www.w3.org/2000/svg" width="238.89" height="340.209" viewBox="0 0 238.89 340.209"><linearGradient id="a" gradientUnits="userSpaceOnUse" x1="9.306" y1="172.994" x2="228.352" y2="172.994"><stop offset="0" stop-color="#C9C9C9"/><stop offset=".033" stop-color="#CECECE"/><stop offset=".222" stop-color="#E4E4E4"/><stop offset=".384" stop-color="#F1F1F1"/><stop offset=".501" stop-color="#F6F6F6"/><stop offset=".611" stop-color="#F2F2F2"/><stop offset=".752" stop-color="#E6E6E6"/><stop offset=".911" stop-color="#D2D2D2"/><stop offset="1" stop-color="#C4C4C4"/></linearGradient><path fill="url(#a)" d="M222.557 322.34c-12.917 2.61-25.93 4.295-39.035 5.127-20.877 5.564-41.615 9.357-62.209 11.201-25.332-1.58-50.843-6.123-76.524-13.356-10.877-4.521-21.845-9.443-32.898-14.703-.922-6.197-1.784-12.393-2.584-18.59 2.732-17.047 6.327-34.763 10.562-53.027 1.874-10.876 3.96-21.902 6.221-33.063.561-20.921 1.656-41.949 3.229-63.079-3.55-22.823-6.451-45.244-8.469-67.185.017-5.01.073-10.01.169-14.999.125-6.508.318-12.996.581-19.466 2.941-8.896 5.919-17.867 8.918-26.907 15.913-3.357 31.897-5.45 47.951-6.348 31.484-1.944 63.211.694 95.169 7.444 16.815 3.551 33.693 8.241 50.634 14.001.629 9.642 1.078 19.335 1.356 29.076-3.116 5.191-6.356 10.555-9.702 16.073.342 7.942.596 15.897.766 23.863-1.474 8.042-3.063 16.169-4.753 24.374 2.79 6.371 5.555 12.678 8.283 18.914 2.892 36.534 4.134 72.717 3.419 108.519 2.191 17.359 3.807 34.361 4.712 50.954-1.886 7.023-3.82 14.082-5.796 21.177z"/><g opacity=".1" stroke="#AFAFAF" stroke-miterlimit="10" fill="none"><path d="M23.826 102.975c63.878-6.388 127.793-5.937 191.743 1.049l.394-2.098c-64.168-7.273-128.299-7.732-192.392-1.07l.255 2.119zM216.124 79.73l-.084-2.134c-65.063-10.255-130.072-10.612-195.026-.736l.197 2.086c64.918-9.582 129.889-9.21 194.913.784zM27.057 127.353c62.483-3.603 124.988-3.131 187.514 1.144l-.975-2.226c-62.304-4.429-124.586-4.875-186.845-1.065l.306 2.147zM26.195 121.227c61.908-4.198 123.841-3.804 185.798.915l.435-2.128c-62.201-4.966-124.377-5.365-186.526-.927l.293 2.14zM27.307 23.78c59.999-15.198 120.08-15.104 180.243-.033-11.34-3.395-22.652-6.297-33.935-8.685-2.922-.618-5.841-1.202-8.759-1.751-45.647-6.168-91.247-3.48-136.797 8.202l-.752 2.267zM24.578 109.037c63.247-5.626 126.527-5.198 189.838.995l.408-2.107c-63.538-6.467-127.043-6.903-190.514-1.014l.268 2.126zM25.368 115.121c62.59-4.896 125.209-4.487 187.855.951l.422-2.118c-62.882-5.698-125.735-6.114-188.558-.966l.281 2.133zM23.778 34.423l-.745 2.249c67.186-15.792 134.464-14.546 201.834 3.318l-.108-2.051c-67.087-18.144-134.081-19.456-200.981-3.516zM225.053 43.802c-67.889-17.341-135.689-18.47-203.4-2.962l-.017.052-.082 2.044c67.776-15.199 135.64-14.084 203.592 2.923l-.093-2.057zM26.235 27.013c65.947-16.406 131.991-14.869 198.131 4.2l-.131-2.046c-65.848-19.349-131.598-20.958-197.25-4.417l-.75 2.263zM24.844 31.205l-.747 2.255c66.778-16.003 133.649-14.663 200.613 3.603l-.116-2.05c-66.677-18.548-133.261-19.955-199.75-3.808zM25.914 27.981l-.749 2.258c66.364-16.208 132.824-14.771 199.378 3.897l-.124-2.047c-66.264-18.948-132.433-20.455-198.505-4.108zM21.971 39.88c67.59-15.575 135.271-14.419 203.041 3.043l-.101-2.053c-67.49-17.743-134.889-18.962-202.197-3.235l-.743 2.245zM27.854 164.545c64.678-.182 129.359.276 194.042 1.08l-.129-2.141c-64.598-1.027-129.193-1.496-193.784-1.114l-.129 2.175zM27.503 170.755c64.914.395 129.827.821 194.739.98l-.117-2.139c-64.835-.386-129.669-.823-194.502-1.015l-.12 2.174zM27.953 133.501c63.112-3.017 126.242-2.483 189.391 1.325l-.969-2.211c-62.933-3.976-125.846-4.491-188.74-1.269l.318 2.155zM28.234 158.328c64.422-.751 128.85-.26 193.284 1.178l-.14-2.143c-64.342-1.659-128.677-2.161-193.004-1.213l-.14 2.178zM222.836 183.938l-.094-2.135c-65.245.923-130.496.55-195.754-.814l-.099 2.17c65.323 1.573 130.639 1.935 195.947.779zM27.032 180.06c65.228 1.276 130.452 1.653 195.669.829l-.1-2.135c-65.15.593-130.305.204-195.464-.865l-.105 2.171zM29.025 140.594l.3 1.94-.017.226c63.694-2.136 127.403-1.567 191.125 1.422l-.168-2.149c-63.762-3.209-127.509-3.785-191.24-1.439zM221.108 153.382l-.151-2.146c-64.065-2.283-128.12-2.816-192.165-1.311l-.15 2.181c64.146-1.311 128.302-.79 192.466 1.276zM28.857 148.992c64-1.588 128.012-1.051 192.033 1.325l-.157-2.147c-63.919-2.591-127.827-3.14-191.722-1.359l-.154 2.181zM29.239 143.695l-.159 2.183c63.85-1.863 127.712-1.31 191.587 1.374l-.162-2.149c-63.77-2.899-127.525-3.463-191.266-1.408zM28.553 137.506l.329 2.162c63.722-2.435 127.459-1.86 191.212 1.44l-.961-2.195c-63.543-3.482-127.07-4.046-190.58-1.407zM28.414 136.581c63.419-2.726 126.855-2.168 190.308 1.391l-.964-2.202c-63.24-3.734-126.463-4.277-189.667-1.347l.323 2.158zM21.502 81.93c64.86-9.167 129.772-8.774 194.735.849l-.078-2.135c-65.006-9.883-129.961-10.261-194.862-.804l.205 2.09zM29.458 17.298c18.952-4.971 37.914-8.327 56.884-10.075-2.62.099-5.238.23-7.855.392-10.275.577-20.521 1.646-30.738 3.223-5.846 1.238-11.691 2.632-17.535 4.184l-.756 2.276zM83.67 327.934c47.033 5.063 94.014.727 140.944-13.162l.509-1.854c-47.218 14.365-94.369 19.437-141.453 15.016zM21.252 51.915c67.998-13.88 136.076-12.82 204.234 2.766l-.071-2.062c-68.115-15.913-136.149-16.986-204.1-2.802l-.063 2.098zM225.579 57.629l-.064-2.065c-68.175-15.445-136.272-16.5-204.288-2.75l-.056 2.101c68.058-13.448 136.194-12.406 204.408 2.714zM224.315 60.292l1.094-1.822c-68.164-14.94-136.251-15.962-204.261-2.656l-.049 2.102c67.664-12.934 135.403-12.008 203.216 2.376zM195.508 326.149c6.133-.635 12.245-1.463 18.336-2.491 3.017-.847 6.034-1.736 9.05-2.667l.604-2.179c-9.327 2.837-18.657 5.282-27.99 7.337zM222.604 322.037l.032-.114-.983.304.951-.19zM21.037 60.919c67.162-12.41 134.395-11.615 201.698 1.998l1.108-1.841c-67.661-14.15-135.249-15.036-202.763-2.261l-.031 1.541-.012.563zM43.12 324.311c44.938 10.268 89.829 11.753 134.671 4.321 1.918-.481 3.838-.977 5.758-1.488 1.358-.086 2.715-.18 4.07-.284 12.049-2.348 24.095-5.34 36.137-8.98l.601-2.176c-64.09 19.088-128.277 20.207-192.559 3.745 3.785 1.666 7.559 3.287 11.322 4.862zM15.516 312.039c3.509 1.646 7.01 3.257 10.501 4.832 50.761 13.058 101.6 15.059 152.516 6.254-54.272 8.661-108.611 4.888-163.017-11.086zM166.627 331.262c-37.013 4.957-74.059 3.797-111.138-3.406 12.621 3.183 25.2 5.707 37.737 7.539 15.817 1.346 31.627 1.563 47.431.647 8.633-1.27 17.29-2.867 25.97-4.78zM129.59 337.488c-6.763.168-13.527.126-20.292-.124 4.009.396 8.014.719 12.015.968 2.757-.247 5.516-.528 8.277-.844zM21.343 48.92c67.931-14.316 135.945-13.237 204.041 2.818l-.078-2.06c-68.049-16.387-136.014-17.478-203.893-2.855l-.07 2.097zM21.591 82.825l.212 2.094c64.797-8.758 129.643-8.345 194.537.911l-.072-2.137c-64.942-9.513-129.835-9.911-194.677-.868zM21.896 85.816l.219 2.098c64.726-8.354 129.5-7.924 194.321.967l-.066-2.137c-64.873-9.146-129.698-9.564-194.474-.928zM216.671 98.043l-.048-2.14c-64.626-8.065-129.21-8.53-193.752-1.08l.241 2.11c64.479-7.18 128.999-6.706 193.559 1.11zM222.876 184.851c-65.335 1.256-130.677.899-196.028-.764l-.094 2.168c65.412 1.873 130.816 2.218 196.21.728l-.088-2.132zM22.211 88.813l.227 2.102c64.65-7.957 129.346-7.511 194.085 1.019l-.06-2.138c-64.797-8.783-129.548-9.218-194.252-.983zM216.224 73.693l1.161-1.917c-65.554-11.252-131.049-11.678-196.483-.926l-.016 2.111c65.055-10.414 130.168-10.056 195.338.732zM219.518 68.252l1.135-1.88c-66.627-12.649-133.188-13.288-199.681-1.545l-.029 2.107c66.127-11.391 132.319-10.831 198.575 1.318zM217.88 70.96l1.149-1.899c-66.095-11.939-132.128-12.467-198.097-1.224l-.022 2.11c65.596-10.898 131.253-10.443 196.97 1.013zM215.914 74.548c-65.068-10.623-130.079-10.963-195.033-.684l-.007 1.49.057.614c64.969-10.004 129.993-9.654 195.073.714l-.09-2.134zM221.136 65.571l1.122-1.861c-67.149-13.387-134.228-14.144-201.237-1.89l-.035 2.105c66.649-11.895 133.366-11.221 200.15 1.646zM22.769 93.921c64.568-7.566 129.178-7.105 193.832 1.067l-.054-2.138c-64.715-8.422-129.385-8.873-194.011-1.034l.233 2.105zM23.936 103.882l.261 2.121c63.566-6.003 127.166-5.564 190.8 1.021l.401-2.102c-63.856-6.865-127.677-7.312-191.462-1.04zM21.983 226.748l-.386 2.104c67.455 6.662 134.874 6.911 202.258.399l-.004-2.117c-67.256 6.239-134.545 5.995-201.868-.386zM20.893 232.747l-.372 2.094c67.814 7.483 135.588 7.752 203.321.449l.008-2.114c-67.613 7.024-135.266 6.762-202.957-.429zM27.453 171.686l-.115 2.173c65.024.686 130.046 1.096 195.065.93l-.112-2.138c-64.944-.062-129.89-.483-194.838-.965zM25.443 208.78l-.425 2.134c66.245 4.409 132.466 4.643 198.663.378l-.041-2.124c-66.043 4.009-132.109 3.773-198.197-.388zM24.24 214.864l-.413 2.124c66.676 5.138 133.325 5.37 199.947.364l-.029-2.122c-66.475 4.745-132.977 4.512-199.505-.366zM19.843 238.716l-.478 2.069c68.188 8.351 136.332 8.653 204.43.536l.021-2.112c-67.948 7.827-135.94 7.541-203.973-.493zM23.074 220.919l-.399 2.114c67.084 5.897 134.137 6.134 201.157.371l-.016-2.118c-66.884 5.496-133.798 5.261-200.742-.367zM227.768 290.933l-.145-1.995c-72.461 16.868-145.016 16.223-217.664-1.431l-.185 1.106.112.898c72.724 18.074 145.351 18.719 217.882 1.422zM227.828 291.787c-72.513 17.47-145.123 16.838-217.83-1.383l.265 2.086c72.666 18.564 145.233 19.165 217.7 1.287l-.135-1.99zM13.572 267.788l-.392 1.997c71.026 13.629 141.98 14.123 212.861 1.033l-.206-2.032c-70.684 12.696-141.439 12.217-212.263-.998zM14.726 262.055l-.41 2.012c70.439 12.462 140.813 12.918 211.12.937l-.223-2.042c-70.098 11.603-140.26 11.16-210.487-.907zM12.47 273.477l-.373 1.981c71.579 14.849 143.079 15.385 214.5 1.144l-.189-2.023c-71.236 13.834-142.549 13.314-213.938-1.102zM29.135 18.271l-.754 2.271c39.393-10.156 78.823-13.526 118.289-10.202-14.149-1.957-28.251-3.073-42.305-3.306-25.092.959-50.169 4.697-75.23 11.237zM24.694 109.948l.274 2.129c62.922-5.257 125.874-4.839 188.856.972l.415-2.113c-63.212-6.078-126.394-6.503-189.545-.988zM27.8 165.476l-.125 2.175c64.798.105 129.598.548 194.399 1.03l-.123-2.141c-64.719-.707-129.437-1.16-194.151-1.064zM11.577 278.279c71.842 15.479 143.603 16.038 215.28 1.204l-.18-2.017c-71.498 14.418-143.078 13.875-214.736-1.162l-.364 1.975zM21.52 43.832l-.077 2.094c67.857-14.755 135.799-13.659 203.826 2.87l-.086-2.058c-67.973-16.862-135.861-17.972-203.663-2.906zM30.537 14.047l1.109-.294-1.087.228-.022.066zM12.268 310.219c71.179 21.347 142.246 22.003 213.197 1.451l.592-2.169c-71.254 20.327-142.621 19.698-214.1-1.367l-.124-.89c71.604 20.942 143.096 21.559 214.476 1.329l.588-2.167c-71.677 20.003-143.467 19.413-215.367-1.246l-.121-.89c72.023 20.535 143.937 21.114 215.74 1.211l.584-2.163c-72.098 19.672-144.306 19.119-216.622-1.133l-.118-.89c72.437 20.127 144.768 20.669 216.989 1.098l.411-1.531-.032-.576c-72.447 19.282-145 18.747-217.659-1.076l-.115-.89c72.681 19.672 145.257 20.221 217.727 1.12l-.117-1.979c-72.528 18.683-145.16 18.1-217.894-1.225l-.113-.89c72.754 19.175 145.406 19.771 217.955 1.267l-.126-1.985c-72.755 18.129-145.611 17.46-218.567-1.485.746 5.721 1.543 11.443 2.393 17.164l.466.221-.043-.309zM23.216 97.838l.248 2.113c64.183-6.78 128.406-6.318 192.666 1.079l.387-2.091c-64.474-7.691-128.907-8.162-193.301-1.101zM28.175 159.26l-.135 2.178c64.552-.467 129.11.007 193.671 1.129l-.134-2.143c-64.472-1.344-128.94-1.83-193.402-1.164zM28.579 153.039l-.145 2.179c64.286-1.032 128.581-.526 192.882 1.228l-.146-2.145c-64.205-1.973-128.402-2.49-192.591-1.262zM26.322 122.144l.3 2.144c62.162-3.898 124.348-3.465 186.556 1.029l-.979-2.234c-61.983-4.641-123.942-5.044-185.877-.939zM27.189 128.274l.312 2.151c62.8-3.31 125.62-2.804 188.459 1.242l-.972-2.218c-62.621-4.208-125.22-4.691-187.799-1.175zM25.49 116.035l.287 2.137c62.252-4.543 124.531-4.142 186.835.932l.429-2.124c-62.544-5.328-125.062-5.735-187.551-.945zM227.406 286.081c-72.234 16.239-144.558 15.621-216.973-1.358l-.333 1.951c72.579 17.45 145.066 18.087 217.46 1.409l-.154-2.002zM24.418 213.954c66.463 4.769 132.902 5.002 199.314.369l-.035-2.122c-66.262 4.374-132.549 4.141-198.86-.375l-.419 2.128zM23.246 220.013c66.883 5.513 133.737 5.748 200.561.365l-.023-2.119c-66.683 5.118-133.394 4.885-200.133-.364l-.405 2.118zM26.103 204.805c65.836 3.717 131.653 3.963 197.45.421l-.053-2.126c-65.76 3.299-131.539 3.042-197.335-.456l-.062 2.161zM27.182 176.96c65.129.98 130.254 1.374 195.374.88l-.106-2.137c-65.05.265-130.103-.14-195.159-.914l-.109 2.171zM19.999 237.823c67.984 7.905 135.925 8.187 203.824.482l.015-2.112c-67.784 7.424-135.608 7.151-203.474-.458l-.365 2.088zM21.054 231.849c67.637 7.068 135.237 7.327 202.799.421l.002-2.114c-67.437 6.63-134.912 6.378-202.422-.405l-.379 2.098zM22.15 225.847c67.266 6.262 134.499 6.505 201.697.381l-.009-1.918c-67.078 5.879-134.189 5.64-201.332-.374l-.356 1.911zM223.621 208.259l-.047-2.124c-65.818 3.647-131.658 3.406-197.517-.406l-.431 2.137c66.02 4.055 132.019 4.293 197.995.393zM26.362 196.464l-.073 2.164c65.716 3.094 131.417 3.373 197.101.524l-.065-2.128c-65.639 2.609-131.293 2.318-196.963-.56zM26.26 199.554l-.067 2.164c65.779 3.405 131.54 3.667 197.284.472l-.059-2.127c-65.703 2.952-131.423 2.678-197.158-.509zM26.472 193.371l-.078 2.166c65.648 2.786 131.283 3.081 196.902.575l-.071-2.13c-65.57 2.268-131.155 1.961-196.753-.611zM26.507 192.444c65.575 2.48 131.138 2.792 196.688.627l-.077-2.13c-65.498 1.928-131.007 1.604-196.527-.662l-.084 2.165zM223.083 190.029l-.083-2.132c-65.419 1.591-130.847 1.25-196.285-.713l-.089 2.168c65.497 2.175 130.983 2.503 196.457.677zM15.505 258.307c69.82 11.347 139.58 11.769 209.279.854l-.239-2.052c-69.478 10.551-139.016 10.14-208.612-.828l-.428 2.026zM12.632 272.627c71.307 14.232 142.538 14.746 213.693 1.086l-.198-2.027c-70.964 13.259-142.002 12.76-213.113-1.049l-.382 1.99zM18.692 243.73c68.402 8.812 136.757 9.138 205.065.604l.027-2.109c-68.162 8.241-136.37 7.932-204.622-.556l-.47 2.061zM227.175 283.217c-71.998 15.621-144.083 15.029-216.254-1.289l-.343 1.958c72.342 16.779 144.596 17.389 216.76 1.337l-.163-2.006zM11.07 281.089c72.097 16.122 144.109 16.706 216.034 1.269l-.172-2.012c-71.753 15.014-143.589 14.447-215.509-1.223l-.353 1.966zM13.741 266.931c70.737 13.039 141.405 13.513 212.003.983l-.215-2.038c-70.395 12.144-140.857 11.683-211.387-.951l-.401 2.006zM17.188 250.466l-.445 2.041c69.169 10.282 138.283 10.675 207.342.784l-.255-2.062c-68.827 9.542-137.708 9.158-206.642-.763zM16.554 253.379l-.437 2.033c69.498 10.808 138.94 11.215 208.322.818l-.247-2.058c-69.156 10.042-138.369 9.645-207.638-.793zM18.03 246.666c68.609 9.284 137.17 9.637 205.68.68l.034-2.109c-68.369 8.661-136.787 8.327-205.251-.626l-.463 2.055zM225.115 262.087l-.231-2.048c-69.792 11.072-139.646 10.645-209.561-.866l-.419 2.02c70.134 11.898 140.205 12.336 210.211.894zM223.694 248.247c-68.569 9.085-137.19 8.723-205.86-.704l-.454 2.047c68.831 9.768 137.611 10.149 206.338.755l-.056-.444.032-1.654z"/></g><path fill="#AB222B" d="M32.096 124.619c1.102 6.151 2.255 12.338 3.453 18.558 2.252.988 4.506 1.988 6.763 3.001-1.831 2.679-3.659 5.342-5.482 7.989 9.315 2.418 18.647 4.961 27.987 7.583 24.703 1.461 49.416 3.137 74.131 4.825 14.614-3.286 29.223-6.514 43.809-9.543 8.657-1.487 17.307-2.911 25.949-4.249-5.325-4.816-10.663-9.725-16.001-14.697l2.386-4.695c2.943-7.244 5.818-14.4 8.605-21.451-15.098-.672-30.207-.995-45.326-.994-12.419 2.138-24.884 4.543-37.386 7.133-13.979-.101-27.956.026-41.932.385-4.849 1.185-9.702 2.389-14.561 3.605-12.632-3.847-25.192-7.376-37.653-10.442 1.717 4.288 3.472 8.62 5.258 12.992z"/><g fill="#EDEDED"><path d="M53.301 135.019c.063-3.411.077-4.023.054-4.728-.021-.75-.162-1.122-.767-1.37l-.46-.115c-.165-.048-.312-.093-.31-.202.003-.131.096-.16.298-.129l2.081.388c.367.061 4.116.614 4.544.647.426.038.759.085.909-.004l.168-.064c.074.01.109.103.107.213l-.123.668c-.086.627-.093.98-.14 1.591-.005.265-.1.427-.174.416-.092-.013-.11-.103-.125-.304-.013-.31-.077-.849-.332-1.151-.218-.251-.548-.475-1.084-.575-.942-.159-1.885-.32-2.826-.484-.111-.017-.167.041-.171.216-.04 2.015-.078 4.029-.112 6.044-.002.132.015.201.126.218.759.12 1.814.284 2.575.378.982.127 1.224.14 1.489-.196.095-.118.133-.2.208-.189.074.011.092.08.09.19-.002.131-.101.493-.168 1.21-.066.652-.073 1.179-.096 1.507-.022.238-.042.368-.135.354-.112-.017-.128-.174-.143-.396-.03-.49-.074-1.268-1.037-1.568-.463-.136-2.482-.451-2.797-.502-.093-.015-.13.023-.133.176l-.03 1.861c-.029 1.861-.051 3.417-.008 4.434.043.995.241 1.511.741 1.661.241.084.556.158.76.214.167.048.222.101.221.19-.001.11-.095.138-.299.105-1.041-.171-2.19-.433-2.282-.449l-.167-.029c-.372-.041-1.207-.141-1.651-.219-.204-.036-.296-.096-.294-.227.001-.066.038-.103.205-.095.185.01.352.018.483-.004.391-.064.525-.369.594-1.322.069-.93.108-2.458.141-4.513.025-1.282.047-2.564.07-3.846zM64.282 136.648c.049-3.451.061-4.071.035-4.783-.025-.758-.205-1.158-.611-1.322-.203-.092-.444-.146-.574-.163-.074-.01-.147-.064-.146-.153.002-.133.096-.165.3-.138.612.081 1.78.298 1.873.31.093.012 1.264.094 1.821.162.204.025.297.081.295.214-.001.089-.076.124-.151.115-.13-.016-.242-.008-.466.008-.503.049-.658.406-.707 1.178-.048.704-.059 1.324-.107 4.781-.018 1.3-.034 2.599-.05 3.898-.025 2.128-.043 3.877.041 4.821.05.651.157 1.154.716 1.321.261.081.653.179.765.195.168.023.224.096.223.163-.001.111-.076.168-.282.139-1.027-.141-2.221-.378-2.314-.391-.094-.013-1.27-.116-1.829-.2-.205-.03-.298-.088-.296-.221.001-.066.038-.126.206-.101.112.017.317.024.485.005.374-.034.491-.527.572-1.158.103-.916.122-2.663.148-4.787l.053-3.893zM71.828 141.416c.089-8.042.096-5.142.132-9.466.012-.87.072-1.108.22-1.091.149.016.459.542.643.785.274.41 3.004 4.306 5.856 8.296 1.832 2.563 3.86 5.5 4.456 6.298-.044-3.812-.083-7.624-.115-11.435-.005-1.463-.131-1.968-.709-2.198-.336-.118-.635-.168-.803-.182-.206-.019-.261-.091-.26-.181.001-.135.151-.144.376-.124.841.074 1.739.219 1.945.236.206.017.824.002 1.592.063.206.016.337.049.336.185-.001.09-.076.129-.207.142l-.487.05c-.526.093-.66.419-.675 1.971-.053 4.377-.098 8.754-.136 13.131-.009 1.484-.047 1.594-.178 1.581-.151-.014-.375-.283-1.363-1.57-.206-.244-2.89-3.812-4.85-6.574-2.148-3.027-4.224-6.073-4.811-6.943.036 3.568.079 7.138.129 10.708.021 1.833.205 2.436.709 2.676.355.154.767.226.936.246.094.011.15.061.149.151-.001.134-.114.166-.339.139-1.068-.127-1.817-.288-1.985-.309-.168-.021-.956-.052-1.797-.16-.187-.024-.299-.061-.298-.217.001-.089.057-.125.151-.113.149.019.486.04.768-.036.469-.097.568-.732.586-2.758.008-1.103.018-2.202.029-3.301zM90.235 139.341c.024-3.522.03-4.155-.003-4.879-.031-.771-.179-1.142-.796-1.343-.131-.053-.375-.07-.543-.105-.131-.032-.244-.063-.243-.153.001-.136.095-.174.301-.159.431.03.937.067 2.119.213.131.014 3.866.241 4.298.237.413 0 .751-.027.864-.09.113-.061.151-.082.208-.079.056.003.074.094.074.207-.001.159-.116.424-.157 1.057l-.083 1.355c-.02.226-.077.381-.152.377-.113-.006-.15-.12-.149-.302.002-.294-.034-.569-.09-.752-.128-.528-.521-.776-1.347-.914-.319-.062-2.365-.209-2.572-.224-.075-.005-.113.06-.115.219-.015 2.079-.029 4.158-.042 6.237-.001.159.018.228.112.234.244.019 2.557.167 2.99.145.508-.015.753-.069.943-.331.095-.13.152-.217.227-.213.057.003.094.051.093.187-.001.135-.097.516-.157 1.259-.06.698-.062 1.22-.083 1.536-.019.225-.058.336-.133.332-.113-.007-.131-.189-.13-.37.001-.204-.016-.431-.072-.639-.074-.344-.298-.674-.975-.805-.508-.098-2.37-.264-2.69-.287-.094-.006-.132.059-.133.15l-.011 1.988c-.004.769-.036 3.388-.019 3.864.034.93.145 1.435.614 1.695.319.181.828.262 1.563.312.565.038 1.187.055 1.696-.095.604-.19.813-.653.968-1.619.038-.247.077-.335.171-.33.113.006.112.188.112.346 0 .182-.157 1.714-.253 2.184-.134.581-.284.573-1.02.527-1.395-.088-2.017-.177-2.751-.251-.754-.075-1.62-.184-2.354-.24-.452-.035-.904.021-1.393-.041-.208-.017-.301-.07-.3-.205 0-.068.094-.105.208-.118.188-.008.301.001.433-.033.396-.082.642-.379.688-2.07.023-.879.048-2.029.059-4.039l.025-3.975zM100.474 150.218c-.264-.171-.282-.263-.28-.876.003-1.134.082-2.039.102-2.401.019-.248.057-.36.152-.356.113.005.132.075.131.255-.001.205-.002.522.054.843.277 1.692 1.521 2.388 2.786 2.44 1.812.074 2.702-1.47 2.705-2.924.004-1.57-.542-2.496-2.158-4.167l-.846-.874c-1.99-2.056-2.436-3.486-2.429-5.027.011-2.429 1.524-4.019 3.912-3.943.734.023 1.278.13 1.748.279.357.101.507.128.658.132.15.004.187.051.187.164 0 .114-.078.863-.083 2.41-.001.364-.039.523-.133.52-.113-.003-.131-.118-.149-.3-.018-.273-.129-.891-.242-1.143-.112-.255-.617-1.221-2.347-1.277-1.298-.043-2.318.894-2.325 2.552-.005 1.294.48 2.134 2.282 3.903l.526.518c2.217 2.189 2.743 3.611 2.739 5.432-.002.932-.307 2.655-1.612 3.726-.813.655-1.833.889-2.852.845-.886-.039-1.754-.237-2.526-.731zM116.473 144.336c-.001 2.19-.002 3.992.092 4.95.056.662.17 1.164.736 1.258.264.046.68.093.85.093.113 0 .152.068.151.136 0 .114-.095.183-.303.183-1.038-.001-2.229-.078-2.323-.078-.095 0-1.284.058-1.851.05-.208-.002-.302-.05-.302-.187 0-.069.038-.135.151-.134.17.002.397-.041.567-.085.378-.087.472-.588.548-1.249.095-.957.096-2.758.098-4.947.003-3.215.006-6.43.01-9.645-.923.017-1.864.008-2.787.019-1.167.007-1.619.158-1.922.699-.208.383-.265.542-.321.699-.057.181-.114.226-.189.224-.056-.001-.094-.07-.094-.207.001-.227.382-2.178.42-2.36.039-.136.114-.43.189-.429.132.002.32.233.828.287.545.077 1.261.133 1.486.135 2.353.028 4.706.035 7.059.022.602-.003 1.035-.053 1.337-.125l.527-.119c.094-.001.094.135.094.272 0 .685-.055 2.26-.055 2.512 0 .205-.057.297-.132.298-.094.001-.132-.067-.151-.386l-.019-.25c-.057-.686-.509-1.203-2.316-1.24-.791-.02-1.581-.019-2.373-.044-.001 3.217-.003 6.432-.005 9.648zM145.66 146.988c.079.814.216 2.082 1.027 2.339.547.163.98.128 1.168.113.094-.008.207.005.207.119.001.137-.056.187-.281.206-.414.036-2.561.132-3.258.112-.434-.015-.527-.077-.528-.19 0-.092.037-.117.131-.169.132-.078.112-.419.073-.826-.317-3.946-.637-7.894-.961-11.842-1.53 4.101-3.07 8.197-4.617 12.285-.393 1.026-.449 1.235-.619 1.244-.132.007-.227-.217-.588-1.019-.493-1.092-2.126-4.962-2.221-5.188-.171-.401-2.354-5.949-2.564-6.559-.246 3.595-.495 7.19-.746 10.785-.018.366-.037.686-.036 1.074.001.571.228.746.512.803.321.079.566.069.68.065.113-.004.188.037.189.106 0 .16-.093.21-.282.217-.698.029-1.661-.005-1.812 0-.17.006-1.076.106-1.586.121-.189.006-.321-.013-.321-.173 0-.091.094-.139.189-.142.151-.005.283-.009.566-.086.622-.158.659-.981.752-1.92.444-4.964.884-9.928 1.319-14.893.018-.251.092-.46.205-.464.113-.004.188.084.283.331 1.935 4.714 3.873 9.413 5.811 14.093 1.832-4.879 3.655-9.769 5.462-14.665.073-.21.148-.375.279-.383.131-.009.189.17.229.601.451 4.636.897 9.271 1.338 13.905zM152.263 142.661c-.093.008-.149.082-.187.198l-1.103 4.129c-.165.584-.257 1.139-.255 1.548.002.455.361.629.681.6l.169-.015c.188-.017.245.022.245.113.001.137-.169.198-.337.213-.452.042-1.204.039-1.411.057-.207.018-1.241.176-2.126.247-.245.02-.358-.017-.359-.154 0-.091.094-.143.263-.157.132-.011.301-.047.451-.082.865-.208 1.237-1.106 1.57-2.274 1.399-4.835 2.785-9.672 4.156-14.508.217-.77.29-.914.403-.924.112-.01.189.096.419.78.29.843 3.315 9.934 4.481 13.248.69 1.944 1.236 2.245 1.631 2.335.282.081.581.069.732.051.112-.013.206-.003.207.111.001.136-.168.202-.374.226-.281.033-1.65.193-2.944.288-.356.016-.564.039-.564-.098-.001-.091.056-.142.13-.172.112-.058.224-.275.109-.625l-1.783-5.403c-.039-.086-.076-.128-.17-.118-1.344.135-2.689.263-4.034.386zm3.784-1.181c.093-.009.093-.077.074-.166l-1.832-5.964c-.096-.332-.191-.323-.281.026-.531 2.097-1.065 4.195-1.602 6.293-.036.117.001.158.058.153 1.195-.108 2.389-.223 3.583-.342zM166.091 141.319c.033 3.324.118 4.762.459 5.125.301.322.79.419 2.247.222.99-.135 1.811-.272 2.253-.99.239-.394.419-.985.471-1.421.017-.184.053-.302.165-.318.093-.013.112.075.115.323.003.247-.114 1.618-.258 2.293-.126.537-.181.636-1.171.775-1.605.225-3.195.303-5.01.534-.58.074-1.141.212-1.834.297-.206.025-.299-.009-.3-.145 0-.068.036-.139.148-.153.169-.02.393-.093.561-.16.374-.137.465-.647.534-1.313.086-.962.071-2.749.05-4.922-.013-1.328-.026-2.655-.041-3.982-.04-3.531-.049-4.165-.095-4.884-.047-.766-.201-1.11-.819-1.198-.149-.027-.467-.014-.634.005-.074.008-.15-.029-.151-.119-.002-.136.091-.192.295-.215.839-.095 2.013-.165 2.107-.177.093-.011 1.451-.242 2.009-.311.205-.025.299.008.301.144.002.091-.072.145-.148.154-.129.016-.389.071-.613.143-.538.179-.682.581-.709 1.378-.028.727-.017 1.361.024 4.888.016 1.345.031 2.686.044 4.027zM179.515 139.362c.031 2.152.052 3.922.156 4.849.064.641.181 1.116.739 1.114.26.002.669-.021.837-.049.112-.019.149.041.15.109.001.112-.09.194-.294.229-1.021.171-2.193.293-2.286.308-.092.015-1.264.27-1.821.357-.205.032-.299.001-.3-.133-.001-.067.036-.14.147-.157.168-.026.391-.106.558-.178.37-.149.459-.657.525-1.32.082-.957.061-2.729.031-4.884-.043-3.164-.093-6.327-.15-9.491-.905.157-1.832.291-2.739.443-1.149.186-1.592.404-1.88.986-.198.411-.252.577-.305.741-.053.188-.107.241-.182.251-.055.008-.093-.055-.095-.19-.003-.225.338-2.212.371-2.398.035-.14.105-.443.179-.453.13-.018.319.181.82.157.54-.007 1.244-.062 1.466-.093 2.315-.33 4.625-.677 6.93-1.041.59-.093 1.013-.206 1.306-.321l.513-.194c.092-.015.094.118.097.253.014.67-.01 2.218-.005 2.465.004.2-.049.299-.122.311-.092.016-.13-.046-.156-.355l-.023-.242c-.069-.662-.521-1.101-2.293-.867l-2.327.315c.056 3.158.108 6.318.153 9.478z"/></g><linearGradient id="b" gradientUnits="userSpaceOnUse" x1="127.911" y1="25.208" x2="94.078" y2="218.213"><stop offset="0" stop-color="#C9C9C9"/><stop offset=".033" stop-color="#CECECE"/><stop offset=".222" stop-color="#E4E4E4"/><stop offset=".384" stop-color="#F1F1F1"/><stop offset=".501" stop-color="#F6F6F6"/><stop offset=".591" stop-color="#F2F2F2"/><stop offset=".707" stop-color="#E6E6E6"/><stop offset=".838" stop-color="#D2D2D2"/><stop offset=".911" stop-color="#C4C4C4"/></linearGradient><path fill="url(#b)" d="M192.994 20.402c-3.383 2.089-6.814 4.277-10.29 6.554 12.219 9.388 24.709 19.001 37.396 28.594-8.321 1.625-16.752 3.645-25.279 5.997-23.77-10.137-47.148-19.394-70.008-26.914-22.022-1.655-43.947-1.659-65.773.139-12.529 1.728-25.056 4.018-37.58 6.873 13.522-.261 27.203.389 41.027 1.805-12.417 1.533-24.834 3.568-37.251 6.104 8.42.366 16.906 1.069 25.453 2.069-10.654 6.686-21.443 13.504-32.336 20.325 11.275-1.945 22.549-3.565 33.824-4.86 9.087-5.725 18.088-11.39 26.982-16.912-4.334-.218-8.66-.375-12.979-.467 5.311-3.417 10.584-6.793 15.815-10.11 24.961 7.336 50.702 17.251 76.98 28.362-19.424 5.258-39.17 11.709-59.152 18.808 9.425 8.36 19.02 16.971 28.712 25.669 17.608-1.585 35.177-2.755 52.702-3.399-2.691-4.898-5.38-9.821-8.063-14.763 10.196-6.084 20.24-11.797 30.082-16.984 7.668-6.598 15.127-12.778 22.324-18.427-.272-9.744-.715-19.439-1.339-29.083-10.438-3.537-20.854-6.669-31.247-9.38z"/></svg>