<?xml version="1.0" encoding="utf-8"?>
<!-- Generator: Adobe Illustrator 17.0.0, SVG Export Plug-In . SVG Version: 6.00 Build 0)  -->
<!DOCTYPE svg PUBLIC "-//W3C//DTD SVG 1.1//EN" "http://www.w3.org/Graphics/SVG/1.1/DTD/svg11.dtd">
<svg version="1.1" id="Lager_1" xmlns="http://www.w3.org/2000/svg" xmlns:xlink="http://www.w3.org/1999/xlink" x="0px" y="0px"
	 width="238.89px" height="340.209px" viewBox="0 0 238.89 340.209" enable-background="new 0 0 238.89 340.209"
	 xml:space="preserve">
<g>
	<g>
		<linearGradient id="SVGID_1_" gradientUnits="userSpaceOnUse" x1="9.3065" y1="172.9944" x2="228.3519" y2="172.9944">
			<stop  offset="0" style="stop-color:#C9C9C9"/>
			<stop  offset="0.0333" style="stop-color:#CECECE"/>
			<stop  offset="0.2216" style="stop-color:#E4E4E4"/>
			<stop  offset="0.3839" style="stop-color:#F1F1F1"/>
			<stop  offset="0.5007" style="stop-color:#F6F6F6"/>
			<stop  offset="0.6105" style="stop-color:#F2F2F2"/>
			<stop  offset="0.7523" style="stop-color:#E6E6E6"/>
			<stop  offset="0.9111" style="stop-color:#D2D2D2"/>
			<stop  offset="1" style="stop-color:#C4C4C4"/>
		</linearGradient>
		<path fill="url(#SVGID_1_)" d="M222.557,322.34c-12.917,2.61-25.93,4.295-39.035,5.127c-20.877,5.564-41.615,9.357-62.209,11.201
			c-25.332-1.58-50.843-6.123-76.524-13.356c-10.877-4.521-21.845-9.443-32.898-14.703c-0.922-6.197-1.784-12.393-2.584-18.59
			c2.732-17.047,6.327-34.763,10.562-53.027c1.874-10.876,3.96-21.902,6.221-33.063c0.561-20.921,1.656-41.949,3.229-63.079
			c-3.55-22.823-6.451-45.244-8.469-67.185c0.017-5.01,0.073-10.01,0.169-14.999C21.144,54.158,21.337,47.67,21.6,41.2
			c2.941-8.896,5.919-17.867,8.918-26.907c15.913-3.357,31.897-5.45,47.951-6.348c31.484-1.944,63.211,0.694,95.169,7.444
			c16.815,3.551,33.693,8.241,50.634,14.001c0.629,9.642,1.078,19.335,1.356,29.076c-3.116,5.191-6.356,10.555-9.702,16.073
			c0.342,7.942,0.596,15.897,0.766,23.863c-1.474,8.042-3.063,16.169-4.753,24.374c2.79,6.371,5.555,12.678,8.283,18.914
			c2.892,36.534,4.134,72.717,3.419,108.519c2.191,17.359,3.807,34.361,4.712,50.954
			C226.467,308.186,224.533,315.245,222.557,322.34z"/>
		<g opacity="0.1">
			<path fill="none" stroke="#AFAFAF" stroke-miterlimit="10" d="M23.826,102.975c63.878-6.388,127.793-5.937,191.743,1.049
				c0.132-0.7,0.264-1.399,0.394-2.098c-64.168-7.273-128.299-7.732-192.392-1.07C23.655,101.562,23.74,102.268,23.826,102.975z"/>
			<path fill="none" stroke="#AFAFAF" stroke-miterlimit="10" d="M216.124,79.73c-0.027-0.711-0.055-1.423-0.084-2.134
				C150.977,67.341,85.968,66.984,21.014,76.86c0.065,0.695,0.131,1.39,0.197,2.086C86.129,69.364,151.1,69.736,216.124,79.73z"/>
			<path fill="none" stroke="#AFAFAF" stroke-miterlimit="10" d="M27.057,127.353c62.483-3.603,124.988-3.131,187.514,1.144
				c-0.325-0.741-0.65-1.483-0.975-2.226c-62.304-4.429-124.586-4.875-186.845-1.065C26.852,125.921,26.954,126.637,27.057,127.353z
				"/>
			<path fill="none" stroke="#AFAFAF" stroke-miterlimit="10" d="M26.195,121.227c61.908-4.198,123.841-3.804,185.798,0.915
				c0.146-0.71,0.291-1.419,0.435-2.128c-62.201-4.966-124.377-5.365-186.526-0.927C25.998,119.8,26.096,120.513,26.195,121.227z"/>
			<path fill="none" stroke="#AFAFAF" stroke-miterlimit="10" d="M27.307,23.78C87.306,8.582,147.387,8.676,207.55,23.747
				c-11.34-3.395-22.652-6.297-33.935-8.685c-2.922-0.618-5.841-1.202-8.759-1.751c-45.647-6.168-91.247-3.48-136.797,8.202
				C27.808,22.27,27.558,23.025,27.307,23.78z"/>
			<path fill="none" stroke="#AFAFAF" stroke-miterlimit="10" d="M24.578,109.037c63.247-5.626,126.527-5.198,189.838,0.995
				c0.137-0.703,0.273-1.406,0.408-2.107c-63.538-6.467-127.043-6.903-190.514-1.014C24.399,107.62,24.488,108.328,24.578,109.037z"
				/>
			<path fill="none" stroke="#AFAFAF" stroke-miterlimit="10" d="M25.368,115.121c62.59-4.896,125.209-4.487,187.855,0.951
				c0.141-0.706,0.282-1.412,0.422-2.118c-62.882-5.698-125.735-6.114-188.558-0.966C25.18,113.699,25.274,114.41,25.368,115.121z"
				/>
			<path fill="none" stroke="#AFAFAF" stroke-miterlimit="10" d="M23.778,34.423c-0.249,0.75-0.497,1.5-0.745,2.249
				c67.186-15.792,134.464-14.546,201.834,3.318c-0.035-0.684-0.071-1.368-0.108-2.051C157.672,19.795,90.678,18.483,23.778,34.423z
				"/>
			<path fill="none" stroke="#AFAFAF" stroke-miterlimit="10" d="M225.053,43.802c-67.889-17.341-135.689-18.47-203.4-2.962
				c-0.006,0.017-0.011,0.035-0.017,0.052c-0.028,0.681-0.055,1.362-0.082,2.044c67.776-15.199,135.64-14.084,203.592,2.923
				C225.116,45.173,225.085,44.487,225.053,43.802z"/>
			<path fill="none" stroke="#AFAFAF" stroke-miterlimit="10" d="M26.235,27.013c65.947-16.406,131.991-14.869,198.131,4.2
				c-0.043-0.682-0.087-1.364-0.131-2.046C158.387,9.818,92.637,8.209,26.985,24.75C26.735,25.505,26.485,26.259,26.235,27.013z"/>
			<path fill="none" stroke="#AFAFAF" stroke-miterlimit="10" d="M24.844,31.205c-0.249,0.752-0.498,1.504-0.747,2.255
				c66.778-16.003,133.649-14.663,200.613,3.603c-0.038-0.684-0.076-1.367-0.116-2.05C157.917,16.465,91.333,15.058,24.844,31.205z"
				/>
			<path fill="none" stroke="#AFAFAF" stroke-miterlimit="10" d="M25.914,27.981c-0.25,0.753-0.499,1.506-0.749,2.258
				c66.364-16.208,132.824-14.771,199.378,3.897c-0.04-0.683-0.081-1.365-0.124-2.047C158.155,13.141,91.986,11.634,25.914,27.981z"
				/>
			<path fill="none" stroke="#AFAFAF" stroke-miterlimit="10" d="M21.971,39.88c67.59-15.575,135.271-14.419,203.041,3.043
				c-0.033-0.685-0.066-1.369-0.101-2.053c-67.49-17.743-134.889-18.962-202.197-3.235C22.466,38.384,22.219,39.132,21.971,39.88z"
				/>
			<path fill="none" stroke="#AFAFAF" stroke-miterlimit="10" d="M27.854,164.545c64.678-0.182,129.359,0.276,194.042,1.08
				c-0.042-0.713-0.085-1.427-0.129-2.141c-64.598-1.027-129.193-1.496-193.784-1.114C27.94,163.094,27.897,163.82,27.854,164.545z"
				/>
			<path fill="none" stroke="#AFAFAF" stroke-miterlimit="10" d="M27.503,170.755c64.914,0.395,129.827,0.821,194.739,0.98
				c-0.038-0.713-0.078-1.426-0.117-2.139c-64.835-0.386-129.669-0.823-194.502-1.015C27.583,169.306,27.543,170.031,27.503,170.755
				z"/>
			<path fill="none" stroke="#AFAFAF" stroke-miterlimit="10" d="M27.953,133.501c63.112-3.017,126.242-2.483,189.391,1.325
				c-0.322-0.736-0.645-1.473-0.969-2.211c-62.933-3.976-125.846-4.491-188.74-1.269C27.741,132.064,27.847,132.782,27.953,133.501z
				"/>
			<path fill="none" stroke="#AFAFAF" stroke-miterlimit="10" d="M28.234,158.328c64.422-0.751,128.85-0.26,193.284,1.178
				c-0.046-0.714-0.093-1.429-0.14-2.143c-64.342-1.659-128.677-2.161-193.004-1.213C28.327,156.876,28.28,157.602,28.234,158.328z"
				/>
			<path fill="none" stroke="#AFAFAF" stroke-miterlimit="10" d="M222.836,183.938c-0.031-0.712-0.062-1.423-0.094-2.135
				c-65.245,0.923-130.496,0.55-195.754-0.814c-0.034,0.723-0.067,1.447-0.099,2.17C92.212,184.732,157.528,185.094,222.836,183.938
				z"/>
			<path fill="none" stroke="#AFAFAF" stroke-miterlimit="10" d="M27.032,180.06c65.228,1.276,130.452,1.653,195.669,0.829
				c-0.033-0.712-0.066-1.423-0.1-2.135c-65.15,0.593-130.305,0.204-195.464-0.865C27.101,178.613,27.066,179.337,27.032,180.06z"/>
			<path fill="none" stroke="#AFAFAF" stroke-miterlimit="10" d="M29.025,140.594c0.099,0.646,0.199,1.293,0.3,1.94
				c-0.006,0.075-0.011,0.151-0.017,0.226c63.694-2.136,127.403-1.567,191.125,1.422c-0.055-0.716-0.111-1.433-0.168-2.149
				C156.503,138.824,92.756,138.248,29.025,140.594z"/>
			<path fill="none" stroke="#AFAFAF" stroke-miterlimit="10" d="M221.108,153.382c-0.05-0.715-0.1-1.43-0.151-2.146
				c-64.065-2.283-128.12-2.816-192.165-1.311c-0.05,0.727-0.1,1.454-0.15,2.181C92.788,150.795,156.944,151.316,221.108,153.382z"
				/>
			<path fill="none" stroke="#AFAFAF" stroke-miterlimit="10" d="M28.857,148.992c64-1.588,128.012-1.051,192.033,1.325
				c-0.052-0.715-0.104-1.431-0.157-2.147c-63.919-2.591-127.827-3.14-191.722-1.359C28.96,147.538,28.908,148.265,28.857,148.992z"
				/>
			<path fill="none" stroke="#AFAFAF" stroke-miterlimit="10" d="M29.239,143.695c-0.054,0.728-0.107,1.455-0.159,2.183
				c63.85-1.863,127.712-1.31,191.587,1.374c-0.053-0.716-0.108-1.432-0.162-2.149C156.735,142.204,92.98,141.64,29.239,143.695z"/>
			<path fill="none" stroke="#AFAFAF" stroke-miterlimit="10" d="M28.553,137.506c0.109,0.72,0.219,1.441,0.329,2.162
				c63.722-2.435,127.459-1.86,191.212,1.44c-0.32-0.731-0.64-1.462-0.961-2.195C155.59,135.431,92.063,134.867,28.553,137.506z"/>
			<path fill="none" stroke="#AFAFAF" stroke-miterlimit="10" d="M28.414,136.581c63.419-2.726,126.855-2.168,190.308,1.391
				c-0.321-0.733-0.642-1.467-0.964-2.202c-63.24-3.734-126.463-4.277-189.667-1.347C28.197,135.142,28.305,135.862,28.414,136.581z
				"/>
			<path fill="none" stroke="#AFAFAF" stroke-miterlimit="10" d="M21.502,81.93c64.86-9.167,129.772-8.774,194.735,0.849
				c-0.025-0.712-0.051-1.423-0.078-2.135C151.153,70.761,86.198,70.383,21.297,79.84C21.365,80.536,21.433,81.233,21.502,81.93z"/>
			<path fill="none" stroke="#AFAFAF" stroke-miterlimit="10" d="M29.458,17.298c18.952-4.971,37.914-8.327,56.884-10.075
				c-2.62,0.099-5.238,0.23-7.855,0.392c-10.275,0.577-20.521,1.646-30.738,3.223c-5.846,1.238-11.691,2.632-17.535,4.184
				C29.962,15.781,29.71,16.54,29.458,17.298z"/>
			<path fill="none" stroke="#AFAFAF" stroke-miterlimit="10" d="M83.67,327.934c47.033,5.063,94.014,0.727,140.944-13.162
				c0.17-0.618,0.34-1.236,0.509-1.854C177.905,327.283,130.754,332.355,83.67,327.934z"/>
			<path fill="none" stroke="#AFAFAF" stroke-miterlimit="10" d="M21.252,51.915c67.998-13.88,136.076-12.82,204.234,2.766
				c-0.023-0.688-0.046-1.375-0.071-2.062C157.3,36.706,89.266,35.633,21.315,49.817C21.293,50.517,21.272,51.216,21.252,51.915z"/>
			<path fill="none" stroke="#AFAFAF" stroke-miterlimit="10" d="M225.579,57.629c-0.02-0.688-0.042-1.377-0.064-2.065
				C157.34,40.119,89.243,39.064,21.227,52.814c-0.019,0.7-0.038,1.4-0.056,2.101C89.229,41.467,157.365,42.509,225.579,57.629z"/>
			<path fill="none" stroke="#AFAFAF" stroke-miterlimit="10" d="M224.315,60.292c0.366-0.609,0.731-1.217,1.094-1.822
				C157.245,43.53,89.158,42.508,21.148,55.814c-0.017,0.7-0.033,1.401-0.049,2.102C88.763,44.982,156.502,45.908,224.315,60.292z"
				/>
			<path fill="none" stroke="#AFAFAF" stroke-miterlimit="10" d="M195.508,326.149c6.133-0.635,12.245-1.463,18.336-2.491
				c3.017-0.847,6.034-1.736,9.05-2.667c0.202-0.727,0.403-1.453,0.604-2.179C214.171,321.649,204.841,324.094,195.508,326.149z"/>
			<path fill="none" stroke="#AFAFAF" stroke-miterlimit="10" d="M222.604,322.037c0.011-0.038,0.021-0.076,0.032-0.114
				c-0.328,0.102-0.655,0.203-0.983,0.304C221.97,322.164,222.287,322.101,222.604,322.037z"/>
			<path fill="none" stroke="#AFAFAF" stroke-miterlimit="10" d="M21.037,60.919c67.162-12.41,134.395-11.615,201.698,1.998
				c0.371-0.616,0.74-1.23,1.108-1.841C156.182,46.926,88.594,46.04,21.08,58.815c-0.011,0.514-0.021,1.028-0.031,1.541
				C21.045,60.544,21.041,60.732,21.037,60.919z"/>
			<path fill="none" stroke="#AFAFAF" stroke-miterlimit="10" d="M43.12,324.311c44.938,10.268,89.829,11.753,134.671,4.321
				c1.918-0.481,3.838-0.977,5.758-1.488c1.358-0.086,2.715-0.18,4.07-0.284c12.049-2.348,24.095-5.34,36.137-8.98
				c0.201-0.726,0.401-1.451,0.601-2.176c-64.09,19.088-128.277,20.207-192.559,3.745C35.583,321.115,39.357,322.736,43.12,324.311z
				"/>
			<path fill="none" stroke="#AFAFAF" stroke-miterlimit="10" d="M15.516,312.039c3.509,1.646,7.01,3.257,10.501,4.832
				c50.761,13.058,101.6,15.059,152.516,6.254C124.261,331.786,69.922,328.013,15.516,312.039z"/>
			<path fill="none" stroke="#AFAFAF" stroke-miterlimit="10" d="M166.627,331.262c-37.013,4.957-74.059,3.797-111.138-3.406
				c12.621,3.183,25.2,5.707,37.737,7.539c15.817,1.346,31.627,1.563,47.431,0.647C149.29,334.772,157.947,333.175,166.627,331.262z
				"/>
			<path fill="none" stroke="#AFAFAF" stroke-miterlimit="10" d="M129.59,337.488c-6.763,0.168-13.527,0.126-20.292-0.124
				c4.009,0.396,8.014,0.719,12.015,0.968C124.07,338.085,126.829,337.804,129.59,337.488z"/>
			<path fill="none" stroke="#AFAFAF" stroke-miterlimit="10" d="M21.343,48.92c67.931-14.316,135.945-13.237,204.041,2.818
				c-0.025-0.687-0.051-1.374-0.078-2.06C157.257,33.291,89.292,32.2,21.413,46.823C21.389,47.522,21.365,48.221,21.343,48.92z"/>
			<path fill="none" stroke="#AFAFAF" stroke-miterlimit="10" d="M21.591,82.825c0.07,0.697,0.141,1.395,0.212,2.094
				C86.6,76.161,151.446,76.574,216.34,85.83c-0.023-0.712-0.047-1.424-0.072-2.137C151.326,74.18,86.433,73.782,21.591,82.825z"/>
			<path fill="none" stroke="#AFAFAF" stroke-miterlimit="10" d="M21.896,85.816c0.072,0.699,0.145,1.398,0.219,2.098
				c64.726-8.354,129.5-7.924,194.321,0.967c-0.021-0.712-0.043-1.425-0.066-2.137C151.497,77.598,86.672,77.18,21.896,85.816z"/>
			<path fill="none" stroke="#AFAFAF" stroke-miterlimit="10" d="M216.671,98.043c-0.015-0.714-0.031-1.427-0.048-2.14
				c-64.626-8.065-129.21-8.53-193.752-1.08c0.079,0.703,0.16,1.406,0.241,2.11C87.591,89.753,152.111,90.227,216.671,98.043z"/>
			<path fill="none" stroke="#AFAFAF" stroke-miterlimit="10" d="M222.876,184.851c-65.335,1.256-130.677,0.899-196.028-0.764
				c-0.032,0.723-0.063,1.446-0.094,2.168c65.412,1.873,130.816,2.218,196.21,0.728
				C222.935,186.273,222.906,185.562,222.876,184.851z"/>
			<path fill="none" stroke="#AFAFAF" stroke-miterlimit="10" d="M22.211,88.813c0.075,0.7,0.15,1.401,0.227,2.102
				c64.65-7.957,129.346-7.511,194.085,1.019c-0.019-0.713-0.039-1.426-0.06-2.138C151.666,81.013,86.915,80.578,22.211,88.813z"/>
			<path fill="none" stroke="#AFAFAF" stroke-miterlimit="10" d="M216.224,73.693c0.389-0.641,0.776-1.28,1.161-1.917
				C151.831,60.524,86.336,60.098,20.902,70.85c-0.006,0.703-0.011,1.407-0.016,2.111C85.941,62.547,151.054,62.905,216.224,73.693z
				"/>
			<path fill="none" stroke="#AFAFAF" stroke-miterlimit="10" d="M219.518,68.252c0.38-0.629,0.758-1.255,1.135-1.88
				C154.026,53.723,87.465,53.084,20.972,64.827c-0.01,0.702-0.02,1.404-0.029,2.107C87.07,55.543,153.262,56.103,219.518,68.252z"
				/>
			<path fill="none" stroke="#AFAFAF" stroke-miterlimit="10" d="M217.88,70.96c0.384-0.635,0.767-1.268,1.149-1.899
				C152.934,57.122,86.901,56.594,20.932,67.837c-0.008,0.703-0.016,1.406-0.022,2.11C86.506,59.049,152.163,59.504,217.88,70.96z"
				/>
			<path fill="none" stroke="#AFAFAF" stroke-miterlimit="10" d="M215.914,74.548C150.846,63.925,85.835,63.585,20.881,73.864
				c-0.003,0.497-0.005,0.993-0.007,1.49c0.019,0.205,0.038,0.409,0.057,0.614c64.969-10.004,129.993-9.654,195.073,0.714
				C215.974,75.971,215.945,75.26,215.914,74.548z"/>
			<path fill="none" stroke="#AFAFAF" stroke-miterlimit="10" d="M221.136,65.571c0.376-0.623,0.75-1.243,1.122-1.861
				C155.109,50.323,88.03,49.566,21.021,61.82c-0.013,0.702-0.024,1.403-0.035,2.105C87.635,52.03,154.352,52.704,221.136,65.571z"
				/>
			<path fill="none" stroke="#AFAFAF" stroke-miterlimit="10" d="M22.769,93.921c64.568-7.566,129.178-7.105,193.832,1.067
				c-0.017-0.713-0.035-1.426-0.054-2.138c-64.715-8.422-129.385-8.873-194.011-1.034C22.613,92.517,22.691,93.219,22.769,93.921z"
				/>
			<path fill="none" stroke="#AFAFAF" stroke-miterlimit="10" d="M23.936,103.882c0.086,0.707,0.173,1.414,0.261,2.121
				c63.566-6.003,127.166-5.564,190.8,1.021c0.135-0.701,0.268-1.402,0.401-2.102C151.542,98.057,87.721,97.61,23.936,103.882z"/>
			<path fill="none" stroke="#AFAFAF" stroke-miterlimit="10" d="M21.983,226.748c-0.129,0.702-0.258,1.403-0.386,2.104
				c67.455,6.662,134.874,6.911,202.258,0.399c-0.001-0.705-0.002-1.411-0.004-2.117C156.595,233.373,89.306,233.129,21.983,226.748
				z"/>
			<path fill="none" stroke="#AFAFAF" stroke-miterlimit="10" d="M20.893,232.747c-0.125,0.699-0.249,1.397-0.372,2.094
				c67.814,7.483,135.588,7.752,203.321,0.449c0.003-0.705,0.006-1.409,0.008-2.114C156.237,240.2,88.584,239.938,20.893,232.747z"
				/>
			<path fill="none" stroke="#AFAFAF" stroke-miterlimit="10" d="M27.453,171.686c-0.039,0.724-0.077,1.449-0.115,2.173
				c65.024,0.686,130.046,1.096,195.065,0.93c-0.037-0.712-0.074-1.425-0.112-2.138C157.347,172.589,92.401,172.168,27.453,171.686z
				"/>
			<path fill="none" stroke="#AFAFAF" stroke-miterlimit="10" d="M25.443,208.78c-0.143,0.712-0.284,1.423-0.425,2.134
				c66.245,4.409,132.466,4.643,198.663,0.378c-0.013-0.708-0.026-1.416-0.041-2.124C157.597,213.177,91.531,212.941,25.443,208.78z
				"/>
			<path fill="none" stroke="#AFAFAF" stroke-miterlimit="10" d="M24.24,214.864c-0.138,0.709-0.276,1.417-0.413,2.124
				c66.676,5.138,133.325,5.37,199.947,0.364c-0.009-0.707-0.018-1.414-0.029-2.122C157.27,219.975,90.768,219.742,24.24,214.864z"
				/>
			<path fill="none" stroke="#AFAFAF" stroke-miterlimit="10" d="M19.843,238.716c-0.16,0.69-0.32,1.38-0.478,2.069
				c68.188,8.351,136.332,8.653,204.43,0.536c0.008-0.704,0.015-1.408,0.021-2.112C155.868,247.036,87.876,246.75,19.843,238.716z"
				/>
			<path fill="none" stroke="#AFAFAF" stroke-miterlimit="10" d="M23.074,220.919c-0.134,0.705-0.267,1.41-0.399,2.114
				c67.084,5.897,134.137,6.134,201.157,0.371c-0.005-0.706-0.01-1.412-0.016-2.118C156.932,226.782,90.018,226.547,23.074,220.919z
				"/>
			<path fill="none" stroke="#AFAFAF" stroke-miterlimit="10" d="M227.768,290.933c-0.047-0.665-0.095-1.33-0.145-1.995
				c-72.461,16.868-145.016,16.223-217.664-1.431c-0.062,0.369-0.124,0.738-0.185,1.106c0.037,0.299,0.074,0.599,0.112,0.898
				C82.61,307.585,155.237,308.23,227.768,290.933z"/>
			<path fill="none" stroke="#AFAFAF" stroke-miterlimit="10" d="M227.828,291.787c-72.513,17.47-145.123,16.838-217.83-1.383
				c0.088,0.695,0.176,1.39,0.265,2.086c72.666,18.564,145.233,19.165,217.7,1.287C227.919,293.114,227.874,292.451,227.828,291.787
				z"/>
			<path fill="none" stroke="#AFAFAF" stroke-miterlimit="10" d="M13.572,267.788c-0.132,0.666-0.262,1.332-0.392,1.997
				c71.026,13.629,141.98,14.123,212.861,1.033c-0.068-0.677-0.137-1.354-0.206-2.032
				C155.151,281.482,84.396,281.003,13.572,267.788z"/>
			<path fill="none" stroke="#AFAFAF" stroke-miterlimit="10" d="M14.726,262.055c-0.138,0.671-0.274,1.342-0.41,2.012
				c70.439,12.462,140.813,12.918,211.12,0.937c-0.073-0.68-0.148-1.361-0.223-2.042C155.115,274.565,84.953,274.122,14.726,262.055
				z"/>
			<path fill="none" stroke="#AFAFAF" stroke-miterlimit="10" d="M12.47,273.477c-0.125,0.661-0.25,1.322-0.373,1.981
				c71.579,14.849,143.079,15.385,214.5,1.144c-0.062-0.674-0.125-1.348-0.189-2.023C155.172,288.413,83.859,287.893,12.47,273.477z
				"/>
			<path fill="none" stroke="#AFAFAF" stroke-miterlimit="10" d="M29.135,18.271c-0.251,0.758-0.503,1.515-0.754,2.271
				C67.774,10.386,107.204,7.016,146.67,10.34c-14.149-1.957-28.251-3.073-42.305-3.306C79.273,7.993,54.196,11.731,29.135,18.271z"
				/>
			<path fill="none" stroke="#AFAFAF" stroke-miterlimit="10" d="M24.694,109.948c0.091,0.709,0.182,1.419,0.274,2.129
				c62.922-5.257,125.874-4.839,188.856,0.972c0.139-0.705,0.278-1.409,0.415-2.113C151.027,104.858,87.845,104.433,24.694,109.948z
				"/>
			<path fill="none" stroke="#AFAFAF" stroke-miterlimit="10" d="M27.8,165.476c-0.042,0.725-0.084,1.45-0.125,2.175
				c64.798,0.105,129.598,0.548,194.399,1.03c-0.04-0.713-0.081-1.427-0.123-2.141C157.232,165.833,92.514,165.38,27.8,165.476z"/>
			<path fill="none" stroke="#AFAFAF" stroke-miterlimit="10" d="M11.577,278.279c71.842,15.479,143.603,16.038,215.28,1.204
				c-0.059-0.672-0.119-1.344-0.18-2.017c-71.498,14.418-143.078,13.875-214.736-1.162
				C11.818,276.964,11.697,277.622,11.577,278.279z"/>
			<path fill="none" stroke="#AFAFAF" stroke-miterlimit="10" d="M21.52,43.832c-0.026,0.698-0.052,1.396-0.077,2.094
				c67.857-14.755,135.799-13.659,203.826,2.87c-0.028-0.686-0.056-1.372-0.086-2.058C157.21,29.876,89.322,28.766,21.52,43.832z"/>
			<path fill="none" stroke="#AFAFAF" stroke-miterlimit="10" d="M30.537,14.047c0.37-0.099,0.739-0.197,1.109-0.294
				c-0.362,0.075-0.725,0.151-1.087,0.228C30.552,14.003,30.544,14.025,30.537,14.047z"/>
			<path fill="none" stroke="#AFAFAF" stroke-miterlimit="10" d="M12.268,310.219c71.179,21.347,142.246,22.003,213.197,1.451
				c0.198-0.723,0.395-1.446,0.592-2.169c-71.254,20.327-142.621,19.698-214.1-1.367c-0.041-0.297-0.083-0.593-0.124-0.89
				c71.604,20.942,143.096,21.559,214.476,1.329c0.197-0.723,0.393-1.445,0.588-2.167C155.22,326.409,83.43,325.819,11.53,305.16
				c-0.04-0.297-0.081-0.593-0.121-0.89c72.023,20.535,143.937,21.114,215.74,1.211c0.195-0.721,0.39-1.442,0.584-2.163
				c-72.098,19.672-144.306,19.119-216.622-1.133c-0.04-0.297-0.079-0.593-0.118-0.89c72.437,20.127,144.768,20.669,216.989,1.098
				c0.137-0.51,0.274-1.021,0.411-1.531c-0.011-0.192-0.021-0.384-0.032-0.576c-72.447,19.282-145,18.747-217.659-1.076
				c-0.039-0.297-0.077-0.593-0.115-0.89c72.681,19.672,145.257,20.221,217.727,1.12c-0.038-0.659-0.077-1.319-0.117-1.979
				c-72.528,18.683-145.16,18.1-217.894-1.225c-0.038-0.297-0.075-0.593-0.113-0.89c72.754,19.175,145.406,19.771,217.955,1.267
				c-0.041-0.661-0.083-1.323-0.126-1.985c-72.755,18.129-145.611,17.46-218.567-1.485c0.746,5.721,1.543,11.443,2.393,17.164
				c0.155,0.074,0.311,0.147,0.466,0.221C12.297,310.425,12.282,310.322,12.268,310.219z"/>
			<path fill="none" stroke="#AFAFAF" stroke-miterlimit="10" d="M23.216,97.838c0.082,0.704,0.164,1.408,0.248,2.113
				c64.183-6.78,128.406-6.318,192.666,1.079c0.13-0.698,0.259-1.395,0.387-2.091C152.043,91.248,87.61,90.777,23.216,97.838z"/>
			<path fill="none" stroke="#AFAFAF" stroke-miterlimit="10" d="M28.175,159.26c-0.046,0.726-0.09,1.452-0.135,2.178
				c64.552-0.467,129.11,0.007,193.671,1.129c-0.044-0.714-0.089-1.429-0.134-2.143C157.105,159.08,92.637,158.594,28.175,159.26z"
				/>
			<path fill="none" stroke="#AFAFAF" stroke-miterlimit="10" d="M28.579,153.039c-0.049,0.726-0.097,1.453-0.145,2.179
				c64.286-1.032,128.581-0.526,192.882,1.228c-0.048-0.715-0.097-1.43-0.146-2.145C156.965,152.328,92.768,151.811,28.579,153.039z
				"/>
			<path fill="none" stroke="#AFAFAF" stroke-miterlimit="10" d="M26.322,122.144c0.099,0.714,0.199,1.429,0.3,2.144
				c62.162-3.898,124.348-3.465,186.556,1.029c-0.326-0.744-0.652-1.489-0.979-2.234C150.216,118.442,88.257,118.039,26.322,122.144
				z"/>
			<path fill="none" stroke="#AFAFAF" stroke-miterlimit="10" d="M27.189,128.274c0.103,0.717,0.207,1.434,0.312,2.151
				c62.8-3.31,125.62-2.804,188.459,1.242c-0.324-0.739-0.648-1.478-0.972-2.218C152.367,125.241,89.768,124.758,27.189,128.274z"/>
			<path fill="none" stroke="#AFAFAF" stroke-miterlimit="10" d="M25.49,116.035c0.095,0.712,0.191,1.424,0.287,2.137
				c62.252-4.543,124.531-4.142,186.835,0.932c0.144-0.709,0.287-1.417,0.429-2.124C150.497,111.652,87.979,111.245,25.49,116.035z"
				/>
			<path fill="none" stroke="#AFAFAF" stroke-miterlimit="10" d="M227.406,286.081c-72.234,16.239-144.558,15.621-216.973-1.358
				c-0.112,0.651-0.223,1.301-0.333,1.951c72.579,17.45,145.066,18.087,217.46,1.409
				C227.509,287.416,227.458,286.749,227.406,286.081z"/>
			<path fill="none" stroke="#AFAFAF" stroke-miterlimit="10" d="M24.418,213.954c66.463,4.769,132.902,5.002,199.314,0.369
				c-0.011-0.707-0.022-1.414-0.035-2.122c-66.262,4.374-132.549,4.141-198.86-0.375C24.697,212.535,24.557,213.245,24.418,213.954z
				"/>
			<path fill="none" stroke="#AFAFAF" stroke-miterlimit="10" d="M23.246,220.013c66.883,5.513,133.737,5.748,200.561,0.365
				c-0.007-0.706-0.014-1.413-0.023-2.119c-66.683,5.118-133.394,4.885-200.133-0.364C23.516,218.602,23.381,219.308,23.246,220.013
				z"/>
			<path fill="none" stroke="#AFAFAF" stroke-miterlimit="10" d="M26.103,204.805c65.836,3.717,131.653,3.963,197.45,0.421
				c-0.017-0.709-0.035-1.417-0.053-2.126c-65.76,3.299-131.539,3.042-197.335-0.456C26.144,203.363,26.123,204.084,26.103,204.805z
				"/>
			<path fill="none" stroke="#AFAFAF" stroke-miterlimit="10" d="M27.182,176.96c65.129,0.98,130.254,1.374,195.374,0.88
				c-0.035-0.712-0.07-1.424-0.106-2.137c-65.05,0.265-130.103-0.14-195.159-0.914C27.254,175.513,27.217,176.236,27.182,176.96z"/>
			<path fill="none" stroke="#AFAFAF" stroke-miterlimit="10" d="M19.999,237.823c67.984,7.905,135.925,8.187,203.824,0.482
				c0.006-0.704,0.01-1.408,0.015-2.112c-67.784,7.424-135.608,7.151-203.474-0.458C20.241,236.432,20.12,237.128,19.999,237.823z"
				/>
			<path fill="none" stroke="#AFAFAF" stroke-miterlimit="10" d="M21.054,231.849c67.637,7.068,135.237,7.327,202.799,0.421
				c0.001-0.705,0.002-1.41,0.002-2.114c-67.437,6.63-134.912,6.378-202.422-0.405C21.306,230.451,21.18,231.15,21.054,231.849z"/>
			<path fill="none" stroke="#AFAFAF" stroke-miterlimit="10" d="M22.15,225.847c67.266,6.262,134.499,6.505,201.697,0.381
				c-0.003-0.639-0.006-1.278-0.009-1.918c-67.078,5.879-134.189,5.64-201.332-0.374C22.386,224.574,22.267,225.21,22.15,225.847z"
				/>
			<path fill="none" stroke="#AFAFAF" stroke-miterlimit="10" d="M223.621,208.259c-0.015-0.708-0.031-1.416-0.047-2.124
				c-65.818,3.647-131.658,3.406-197.517-0.406c-0.145,0.713-0.288,1.426-0.431,2.137
				C91.646,211.921,157.645,212.159,223.621,208.259z"/>
			<path fill="none" stroke="#AFAFAF" stroke-miterlimit="10" d="M26.362,196.464c-0.025,0.721-0.049,1.443-0.073,2.164
				c65.716,3.094,131.417,3.373,197.101,0.524c-0.021-0.709-0.043-1.418-0.065-2.128C157.686,199.633,92.032,199.342,26.362,196.464
				z"/>
			<path fill="none" stroke="#AFAFAF" stroke-miterlimit="10" d="M26.26,199.554c-0.023,0.721-0.045,1.443-0.067,2.164
				c65.779,3.405,131.54,3.667,197.284,0.472c-0.019-0.709-0.039-1.418-0.059-2.127C157.715,203.015,91.995,202.741,26.26,199.554z"
				/>
			<path fill="none" stroke="#AFAFAF" stroke-miterlimit="10" d="M26.472,193.371c-0.027,0.722-0.053,1.444-0.078,2.166
				c65.648,2.786,131.283,3.081,196.902,0.575c-0.023-0.71-0.047-1.42-0.071-2.13C157.655,196.25,92.07,195.943,26.472,193.371z"/>
			<path fill="none" stroke="#AFAFAF" stroke-miterlimit="10" d="M26.507,192.444c65.575,2.48,131.138,2.792,196.688,0.627
				c-0.025-0.71-0.051-1.42-0.077-2.13c-65.498,1.928-131.007,1.604-196.527-0.662C26.562,191.001,26.534,191.723,26.507,192.444z"
				/>
			<path fill="none" stroke="#AFAFAF" stroke-miterlimit="10" d="M223.083,190.029c-0.027-0.711-0.054-1.421-0.083-2.132
				c-65.419,1.591-130.847,1.25-196.285-0.713c-0.03,0.723-0.06,1.446-0.089,2.168C92.123,191.527,157.609,191.855,223.083,190.029z
				"/>
			<path fill="none" stroke="#AFAFAF" stroke-miterlimit="10" d="M15.505,258.307c69.82,11.347,139.58,11.769,209.279,0.854
				c-0.079-0.683-0.159-1.367-0.239-2.052c-69.478,10.551-139.016,10.14-208.612-0.828
				C15.789,256.957,15.646,257.633,15.505,258.307z"/>
			<path fill="none" stroke="#AFAFAF" stroke-miterlimit="10" d="M12.632,272.627c71.307,14.232,142.538,14.746,213.693,1.086
				c-0.065-0.675-0.131-1.351-0.198-2.027c-70.964,13.259-142.002,12.76-213.113-1.049
				C12.886,271.302,12.758,271.965,12.632,272.627z"/>
			<path fill="none" stroke="#AFAFAF" stroke-miterlimit="10" d="M18.692,243.73c68.402,8.812,136.757,9.138,205.065,0.604
				c0.01-0.703,0.019-1.406,0.027-2.109c-68.162,8.241-136.37,7.932-204.622-0.556C19.004,242.356,18.847,243.043,18.692,243.73z"/>
			<path fill="none" stroke="#AFAFAF" stroke-miterlimit="10" d="M227.175,283.217c-71.998,15.621-144.083,15.029-216.254-1.289
				c-0.116,0.654-0.23,1.306-0.343,1.958c72.342,16.779,144.596,17.389,216.76,1.337
				C227.285,284.555,227.23,283.887,227.175,283.217z"/>
			<path fill="none" stroke="#AFAFAF" stroke-miterlimit="10" d="M11.07,281.089c72.097,16.122,144.109,16.706,216.034,1.269
				c-0.056-0.67-0.113-1.341-0.172-2.012c-71.753,15.014-143.589,14.447-215.509-1.223C11.304,279.779,11.187,280.434,11.07,281.089
				z"/>
			<path fill="none" stroke="#AFAFAF" stroke-miterlimit="10" d="M13.741,266.931c70.737,13.039,141.405,13.513,212.003,0.983
				c-0.071-0.679-0.142-1.358-0.215-2.038c-70.395,12.144-140.857,11.683-211.387-0.951
				C14.008,265.596,13.874,266.264,13.741,266.931z"/>
			<path fill="none" stroke="#AFAFAF" stroke-miterlimit="10" d="M17.188,250.466c-0.149,0.681-0.298,1.362-0.445,2.041
				c69.169,10.282,138.283,10.675,207.342,0.784c-0.084-0.687-0.169-1.374-0.255-2.062
				C155.003,260.771,86.122,260.387,17.188,250.466z"/>
			<path fill="none" stroke="#AFAFAF" stroke-miterlimit="10" d="M16.554,253.379c-0.147,0.679-0.292,1.356-0.437,2.033
				c69.498,10.808,138.94,11.215,208.322,0.818c-0.082-0.685-0.164-1.371-0.247-2.058
				C155.036,264.214,85.823,263.817,16.554,253.379z"/>
			<path fill="none" stroke="#AFAFAF" stroke-miterlimit="10" d="M18.03,246.666c68.609,9.284,137.17,9.637,205.68,0.68
				c0.012-0.703,0.023-1.406,0.034-2.109c-68.369,8.661-136.787,8.327-205.251-0.626C18.337,245.296,18.183,245.981,18.03,246.666z"
				/>
			<path fill="none" stroke="#AFAFAF" stroke-miterlimit="10" d="M225.115,262.087c-0.076-0.682-0.153-1.365-0.231-2.048
				c-69.792,11.072-139.646,10.645-209.561-0.866c-0.141,0.674-0.281,1.347-0.419,2.02
				C85.038,273.091,155.109,273.529,225.115,262.087z"/>
			<path fill="none" stroke="#AFAFAF" stroke-miterlimit="10" d="M223.694,248.247c-68.569,9.085-137.19,8.723-205.86-0.704
				c-0.152,0.683-0.303,1.366-0.454,2.047c68.831,9.768,137.611,10.149,206.338,0.755c-0.019-0.148-0.037-0.296-0.056-0.444
				C223.674,249.35,223.684,248.799,223.694,248.247z"/>
		</g>
		<path fill="#AB222B" d="M32.096,124.619c1.102,6.151,2.255,12.338,3.453,18.558c2.252,0.988,4.506,1.988,6.763,3.001
			c-1.831,2.679-3.659,5.342-5.482,7.989c9.315,2.418,18.647,4.961,27.987,7.583c24.703,1.461,49.416,3.137,74.131,4.825
			c14.614-3.286,29.223-6.514,43.809-9.543c8.657-1.487,17.307-2.911,25.949-4.249c-5.325-4.816-10.663-9.725-16.001-14.697
			c0.798-1.57,1.594-3.135,2.386-4.695c2.943-7.244,5.818-14.4,8.605-21.451c-15.098-0.672-30.207-0.995-45.326-0.994
			c-12.419,2.138-24.884,4.543-37.386,7.133c-13.979-0.101-27.956,0.026-41.932,0.385c-4.849,1.185-9.702,2.389-14.561,3.605
			c-12.632-3.847-25.192-7.376-37.653-10.442C28.555,115.915,30.31,120.247,32.096,124.619z"/>
		<g>
			<g>
				<path fill="#EDEDED" d="M53.301,135.019c0.063-3.411,0.077-4.023,0.054-4.728c-0.021-0.75-0.162-1.122-0.767-1.37
					c-0.11-0.038-0.294-0.067-0.46-0.115c-0.165-0.048-0.312-0.093-0.31-0.202c0.003-0.131,0.096-0.16,0.298-0.129
					c0.718,0.112,1.418,0.286,2.081,0.388c0.367,0.061,4.116,0.614,4.544,0.647c0.426,0.038,0.759,0.085,0.909-0.004
					c0.056-0.035,0.131-0.069,0.168-0.064c0.074,0.01,0.109,0.103,0.107,0.213c-0.002,0.11-0.082,0.408-0.123,0.668
					c-0.086,0.627-0.093,0.98-0.14,1.591c-0.005,0.265-0.1,0.427-0.174,0.416c-0.092-0.013-0.11-0.103-0.125-0.304
					c-0.013-0.31-0.077-0.849-0.332-1.151c-0.218-0.251-0.548-0.475-1.084-0.575c-0.942-0.159-1.885-0.32-2.826-0.484
					c-0.111-0.017-0.167,0.041-0.171,0.216c-0.04,2.015-0.078,4.029-0.112,6.044c-0.002,0.132,0.015,0.201,0.126,0.218
					c0.759,0.12,1.814,0.284,2.575,0.378c0.982,0.127,1.224,0.14,1.489-0.196c0.095-0.118,0.133-0.2,0.208-0.189
					c0.074,0.011,0.092,0.08,0.09,0.19c-0.002,0.131-0.101,0.493-0.168,1.21c-0.066,0.652-0.073,1.179-0.096,1.507
					c-0.022,0.238-0.042,0.368-0.135,0.354c-0.112-0.017-0.128-0.174-0.143-0.396c-0.03-0.49-0.074-1.268-1.037-1.568
					c-0.463-0.136-2.482-0.451-2.797-0.502c-0.093-0.015-0.13,0.023-0.133,0.176c-0.01,0.621-0.02,1.241-0.03,1.861
					c-0.029,1.861-0.051,3.417-0.008,4.434c0.043,0.995,0.241,1.511,0.741,1.661c0.241,0.084,0.556,0.158,0.76,0.214
					c0.167,0.048,0.222,0.101,0.221,0.19c-0.001,0.11-0.095,0.138-0.299,0.105c-1.041-0.171-2.19-0.433-2.282-0.449
					c-0.056-0.01-0.111-0.019-0.167-0.029c-0.372-0.041-1.207-0.141-1.651-0.219c-0.204-0.036-0.296-0.096-0.294-0.227
					c0.001-0.066,0.038-0.103,0.205-0.095c0.185,0.01,0.352,0.018,0.483-0.004c0.391-0.064,0.525-0.369,0.594-1.322
					c0.069-0.93,0.108-2.458,0.141-4.513C53.256,137.583,53.278,136.301,53.301,135.019z"/>
				<path fill="#EDEDED" d="M64.282,136.648c0.049-3.451,0.061-4.071,0.035-4.783c-0.025-0.758-0.205-1.158-0.611-1.322
					c-0.203-0.092-0.444-0.146-0.574-0.163c-0.074-0.01-0.147-0.064-0.146-0.153c0.002-0.133,0.096-0.165,0.3-0.138
					c0.612,0.081,1.78,0.298,1.873,0.31c0.093,0.012,1.264,0.094,1.821,0.162c0.204,0.025,0.297,0.081,0.295,0.214
					c-0.001,0.089-0.076,0.124-0.151,0.115c-0.13-0.016-0.242-0.008-0.466,0.008c-0.503,0.049-0.658,0.406-0.707,1.178
					c-0.048,0.704-0.059,1.324-0.107,4.781c-0.018,1.3-0.034,2.599-0.05,3.898c-0.025,2.128-0.043,3.877,0.041,4.821
					c0.05,0.651,0.157,1.154,0.716,1.321c0.261,0.081,0.653,0.179,0.765,0.195c0.168,0.023,0.224,0.096,0.223,0.163
					c-0.001,0.111-0.076,0.168-0.282,0.139c-1.027-0.141-2.221-0.378-2.314-0.391c-0.094-0.013-1.27-0.116-1.829-0.2
					c-0.205-0.03-0.298-0.088-0.296-0.221c0.001-0.066,0.038-0.126,0.206-0.101c0.112,0.017,0.317,0.024,0.485,0.005
					c0.374-0.034,0.491-0.527,0.572-1.158c0.103-0.916,0.122-2.663,0.148-4.787C64.247,139.243,64.264,137.945,64.282,136.648z"/>
				<path fill="#EDEDED" d="M71.828,141.416c0.089-8.042,0.096-5.142,0.132-9.466c0.012-0.87,0.072-1.108,0.22-1.091
					c0.149,0.016,0.459,0.542,0.643,0.785c0.274,0.41,3.004,4.306,5.856,8.296c1.832,2.563,3.86,5.5,4.456,6.298
					c-0.044-3.812-0.083-7.624-0.115-11.435c-0.005-1.463-0.131-1.968-0.709-2.198c-0.336-0.118-0.635-0.168-0.803-0.182
					c-0.206-0.019-0.261-0.091-0.26-0.181c0.001-0.135,0.151-0.144,0.376-0.124c0.841,0.074,1.739,0.219,1.945,0.236
					c0.206,0.017,0.824,0.002,1.592,0.063c0.206,0.016,0.337,0.049,0.336,0.185c-0.001,0.09-0.076,0.129-0.207,0.142
					c-0.15,0.01-0.263,0.024-0.487,0.05c-0.526,0.093-0.66,0.419-0.675,1.971c-0.053,4.377-0.098,8.754-0.136,13.131
					c-0.009,1.484-0.047,1.594-0.178,1.581c-0.151-0.014-0.375-0.283-1.363-1.57c-0.206-0.244-2.89-3.812-4.85-6.574
					c-2.148-3.027-4.224-6.073-4.811-6.943c0.036,3.568,0.079,7.138,0.129,10.708c0.021,1.833,0.205,2.436,0.709,2.676
					c0.355,0.154,0.767,0.226,0.936,0.246c0.094,0.011,0.15,0.061,0.149,0.151c-0.001,0.134-0.114,0.166-0.339,0.139
					c-1.068-0.127-1.817-0.288-1.985-0.309c-0.168-0.021-0.956-0.052-1.797-0.16c-0.187-0.024-0.299-0.061-0.298-0.217
					c0.001-0.089,0.057-0.125,0.151-0.113c0.149,0.019,0.486,0.04,0.768-0.036c0.469-0.097,0.568-0.732,0.586-2.758
					C71.807,143.614,71.817,142.515,71.828,141.416z"/>
				<path fill="#EDEDED" d="M90.235,139.341c0.024-3.522,0.03-4.155-0.003-4.879c-0.031-0.771-0.179-1.142-0.796-1.343
					c-0.131-0.053-0.375-0.07-0.543-0.105c-0.131-0.032-0.244-0.063-0.243-0.153c0.001-0.136,0.095-0.174,0.301-0.159
					c0.431,0.03,0.937,0.067,2.119,0.213c0.131,0.014,3.866,0.241,4.298,0.237c0.413,0,0.751-0.027,0.864-0.09
					c0.113-0.061,0.151-0.082,0.208-0.079c0.056,0.003,0.074,0.094,0.074,0.207c-0.001,0.159-0.116,0.424-0.157,1.057
					c-0.021,0.338-0.042,0.767-0.083,1.355c-0.02,0.226-0.077,0.381-0.152,0.377c-0.113-0.006-0.15-0.12-0.149-0.302
					c0.002-0.294-0.034-0.569-0.09-0.752c-0.128-0.528-0.521-0.776-1.347-0.914c-0.319-0.062-2.365-0.209-2.572-0.224
					c-0.075-0.005-0.113,0.06-0.115,0.219c-0.015,2.079-0.029,4.158-0.042,6.237c-0.001,0.159,0.018,0.228,0.112,0.234
					c0.244,0.019,2.557,0.167,2.99,0.145c0.508-0.015,0.753-0.069,0.943-0.331c0.095-0.13,0.152-0.217,0.227-0.213
					c0.057,0.003,0.094,0.051,0.093,0.187c-0.001,0.135-0.097,0.516-0.157,1.259c-0.06,0.698-0.062,1.22-0.083,1.536
					c-0.019,0.225-0.058,0.336-0.133,0.332c-0.113-0.007-0.131-0.189-0.13-0.37c0.001-0.204-0.016-0.431-0.072-0.639
					c-0.074-0.344-0.298-0.674-0.975-0.805c-0.508-0.098-2.37-0.264-2.69-0.287c-0.094-0.006-0.132,0.059-0.133,0.15
					c-0.004,0.662-0.007,1.325-0.011,1.988c-0.004,0.769-0.036,3.388-0.019,3.864c0.034,0.93,0.145,1.435,0.614,1.695
					c0.319,0.181,0.828,0.262,1.563,0.312c0.565,0.038,1.187,0.055,1.696-0.095c0.604-0.19,0.813-0.653,0.968-1.619
					c0.038-0.247,0.077-0.335,0.171-0.33c0.113,0.006,0.112,0.188,0.112,0.346c0,0.182-0.157,1.714-0.253,2.184
					c-0.134,0.581-0.284,0.573-1.02,0.527c-1.395-0.088-2.017-0.177-2.751-0.251c-0.754-0.075-1.62-0.184-2.354-0.24
					c-0.452-0.035-0.904,0.021-1.393-0.041c-0.208-0.017-0.301-0.07-0.3-0.205c0-0.068,0.094-0.105,0.208-0.118
					c0.188-0.008,0.301,0.001,0.433-0.033c0.396-0.082,0.642-0.379,0.688-2.07c0.023-0.879,0.048-2.029,0.059-4.039
					C90.219,141.989,90.227,140.666,90.235,139.341z"/>
				<path fill="#EDEDED" d="M100.474,150.218c-0.264-0.171-0.282-0.263-0.28-0.876c0.003-1.134,0.082-2.039,0.102-2.401
					c0.019-0.248,0.057-0.36,0.152-0.356c0.113,0.005,0.132,0.075,0.131,0.255c-0.001,0.205-0.002,0.522,0.054,0.843
					c0.277,1.692,1.521,2.388,2.786,2.44c1.812,0.074,2.702-1.47,2.705-2.924c0.004-1.57-0.542-2.496-2.158-4.167
					c-0.282-0.291-0.564-0.582-0.846-0.874c-1.99-2.056-2.436-3.486-2.429-5.027c0.011-2.429,1.524-4.019,3.912-3.943
					c0.734,0.023,1.278,0.13,1.748,0.279c0.357,0.101,0.507,0.128,0.658,0.132c0.15,0.004,0.187,0.051,0.187,0.164
					c0,0.114-0.078,0.863-0.083,2.41c-0.001,0.364-0.039,0.523-0.133,0.52c-0.113-0.003-0.131-0.118-0.149-0.3
					c-0.018-0.273-0.129-0.891-0.242-1.143c-0.112-0.255-0.617-1.221-2.347-1.277c-1.298-0.043-2.318,0.894-2.325,2.552
					c-0.005,1.294,0.48,2.134,2.282,3.903c0.175,0.173,0.351,0.346,0.526,0.518c2.217,2.189,2.743,3.611,2.739,5.432
					c-0.002,0.932-0.307,2.655-1.612,3.726c-0.813,0.655-1.833,0.889-2.852,0.845C102.114,150.91,101.246,150.712,100.474,150.218z"
					/>
				<path fill="#EDEDED" d="M116.473,144.336c-0.001,2.19-0.002,3.992,0.092,4.95c0.056,0.662,0.17,1.164,0.736,1.258
					c0.264,0.046,0.68,0.093,0.85,0.093c0.113,0,0.152,0.068,0.151,0.136c0,0.114-0.095,0.183-0.303,0.183
					c-1.038-0.001-2.229-0.078-2.323-0.078c-0.095,0-1.284,0.058-1.851,0.05c-0.208-0.002-0.302-0.05-0.302-0.187
					c0-0.069,0.038-0.135,0.151-0.134c0.17,0.002,0.397-0.041,0.567-0.085c0.378-0.087,0.472-0.588,0.548-1.249
					c0.095-0.957,0.096-2.758,0.098-4.947c0.003-3.215,0.006-6.43,0.01-9.645c-0.923,0.017-1.864,0.008-2.787,0.019
					c-1.167,0.007-1.619,0.158-1.922,0.699c-0.208,0.383-0.265,0.542-0.321,0.699c-0.057,0.181-0.114,0.226-0.189,0.224
					c-0.056-0.001-0.094-0.07-0.094-0.207c0.001-0.227,0.382-2.178,0.42-2.36c0.039-0.136,0.114-0.43,0.189-0.429
					c0.132,0.002,0.32,0.233,0.828,0.287c0.545,0.077,1.261,0.133,1.486,0.135c2.353,0.028,4.706,0.035,7.059,0.022
					c0.602-0.003,1.035-0.053,1.337-0.125c0.283-0.048,0.452-0.118,0.527-0.119c0.094-0.001,0.094,0.135,0.094,0.272
					c0,0.685-0.055,2.26-0.055,2.512c0,0.205-0.057,0.297-0.132,0.298c-0.094,0.001-0.132-0.067-0.151-0.386
					c0-0.091-0.019-0.16-0.019-0.25c-0.057-0.686-0.509-1.203-2.316-1.24c-0.791-0.02-1.581-0.019-2.373-0.044
					C116.477,137.905,116.475,141.12,116.473,144.336z"/>
				<path fill="#EDEDED" d="M145.66,146.988c0.079,0.814,0.216,2.082,1.027,2.339c0.547,0.163,0.98,0.128,1.168,0.113
					c0.094-0.008,0.207,0.005,0.207,0.119c0.001,0.137-0.056,0.187-0.281,0.206c-0.414,0.036-2.561,0.132-3.258,0.112
					c-0.434-0.015-0.527-0.077-0.528-0.19c0-0.092,0.037-0.117,0.131-0.169c0.132-0.078,0.112-0.419,0.073-0.826
					c-0.317-3.946-0.637-7.894-0.961-11.842c-1.53,4.101-3.07,8.197-4.617,12.285c-0.393,1.026-0.449,1.235-0.619,1.244
					c-0.132,0.007-0.227-0.217-0.588-1.019c-0.493-1.092-2.126-4.962-2.221-5.188c-0.171-0.401-2.354-5.949-2.564-6.559
					c-0.246,3.595-0.495,7.19-0.746,10.785c-0.018,0.366-0.037,0.686-0.036,1.074c0.001,0.571,0.228,0.746,0.512,0.803
					c0.321,0.079,0.566,0.069,0.68,0.065c0.113-0.004,0.188,0.037,0.189,0.106c0,0.16-0.093,0.21-0.282,0.217
					c-0.698,0.029-1.661-0.005-1.812,0c-0.17,0.006-1.076,0.106-1.586,0.121c-0.189,0.006-0.321-0.013-0.321-0.173
					c0-0.091,0.094-0.139,0.189-0.142c0.151-0.005,0.283-0.009,0.566-0.086c0.622-0.158,0.659-0.981,0.752-1.92
					c0.444-4.964,0.884-9.928,1.319-14.893c0.018-0.251,0.092-0.46,0.205-0.464c0.113-0.004,0.188,0.084,0.283,0.331
					c1.935,4.714,3.873,9.413,5.811,14.093c1.832-4.879,3.655-9.769,5.462-14.665c0.073-0.21,0.148-0.375,0.279-0.383
					c0.131-0.009,0.189,0.17,0.229,0.601C144.773,137.719,145.219,142.354,145.66,146.988z"/>
				<path fill="#EDEDED" d="M152.263,142.661c-0.093,0.008-0.149,0.082-0.187,0.198c-0.367,1.376-0.735,2.753-1.103,4.129
					c-0.165,0.584-0.257,1.139-0.255,1.548c0.002,0.455,0.361,0.629,0.681,0.6c0.055-0.005,0.112-0.01,0.169-0.015
					c0.188-0.017,0.245,0.022,0.245,0.113c0.001,0.137-0.169,0.198-0.337,0.213c-0.452,0.042-1.204,0.039-1.411,0.057
					c-0.207,0.018-1.241,0.176-2.126,0.247c-0.245,0.02-0.358-0.017-0.359-0.154c0-0.091,0.094-0.143,0.263-0.157
					c0.132-0.011,0.301-0.047,0.451-0.082c0.865-0.208,1.237-1.106,1.57-2.274c1.399-4.835,2.785-9.672,4.156-14.508
					c0.217-0.77,0.29-0.914,0.403-0.924c0.112-0.01,0.189,0.096,0.419,0.78c0.29,0.843,3.315,9.934,4.481,13.248
					c0.69,1.944,1.236,2.245,1.631,2.335c0.282,0.081,0.581,0.069,0.732,0.051c0.112-0.013,0.206-0.003,0.207,0.111
					c0.001,0.136-0.168,0.202-0.374,0.226c-0.281,0.033-1.65,0.193-2.944,0.288c-0.356,0.016-0.564,0.039-0.564-0.098
					c-0.001-0.091,0.056-0.142,0.13-0.172c0.112-0.058,0.224-0.275,0.109-0.625c-0.593-1.798-1.188-3.6-1.783-5.403
					c-0.039-0.086-0.076-0.128-0.17-0.118C154.953,142.41,153.608,142.538,152.263,142.661z M156.047,141.48
					c0.093-0.009,0.093-0.077,0.074-0.166c-0.61-1.985-1.22-3.973-1.832-5.964c-0.096-0.332-0.191-0.323-0.281,0.026
					c-0.531,2.097-1.065,4.195-1.602,6.293c-0.036,0.117,0.001,0.158,0.058,0.153C153.659,141.714,154.853,141.599,156.047,141.48z"
					/>
				<path fill="#EDEDED" d="M166.091,141.319c0.033,3.324,0.118,4.762,0.459,5.125c0.301,0.322,0.79,0.419,2.247,0.222
					c0.99-0.135,1.811-0.272,2.253-0.99c0.239-0.394,0.419-0.985,0.471-1.421c0.017-0.184,0.053-0.302,0.165-0.318
					c0.093-0.013,0.112,0.075,0.115,0.323c0.003,0.247-0.114,1.618-0.258,2.293c-0.126,0.537-0.181,0.636-1.171,0.775
					c-1.605,0.225-3.195,0.303-5.01,0.534c-0.58,0.074-1.141,0.212-1.834,0.297c-0.206,0.025-0.299-0.009-0.3-0.145
					c0-0.068,0.036-0.139,0.148-0.153c0.169-0.02,0.393-0.093,0.561-0.16c0.374-0.137,0.465-0.647,0.534-1.313
					c0.086-0.962,0.071-2.749,0.05-4.922c-0.013-1.328-0.026-2.655-0.041-3.982c-0.04-3.531-0.049-4.165-0.095-4.884
					c-0.047-0.766-0.201-1.11-0.819-1.198c-0.149-0.027-0.467-0.014-0.634,0.005c-0.074,0.008-0.15-0.029-0.151-0.119
					c-0.002-0.136,0.091-0.192,0.295-0.215c0.839-0.095,2.013-0.165,2.107-0.177c0.093-0.011,1.451-0.242,2.009-0.311
					c0.205-0.025,0.299,0.008,0.301,0.144c0.002,0.091-0.072,0.145-0.148,0.154c-0.129,0.016-0.389,0.071-0.613,0.143
					c-0.538,0.179-0.682,0.581-0.709,1.378c-0.028,0.727-0.017,1.361,0.024,4.888C166.063,138.637,166.078,139.978,166.091,141.319z
					"/>
				<path fill="#EDEDED" d="M179.515,139.362c0.031,2.152,0.052,3.922,0.156,4.849c0.064,0.641,0.181,1.116,0.739,1.114
					c0.26,0.002,0.669-0.021,0.837-0.049c0.112-0.019,0.149,0.041,0.15,0.109c0.001,0.112-0.09,0.194-0.294,0.229
					c-1.021,0.171-2.193,0.293-2.286,0.308c-0.092,0.015-1.264,0.27-1.821,0.357c-0.205,0.032-0.299,0.001-0.3-0.133
					c-0.001-0.067,0.036-0.14,0.147-0.157c0.168-0.026,0.391-0.106,0.558-0.178c0.37-0.149,0.459-0.657,0.525-1.32
					c0.082-0.957,0.061-2.729,0.031-4.884c-0.043-3.164-0.093-6.327-0.15-9.491c-0.905,0.157-1.832,0.291-2.739,0.443
					c-1.149,0.186-1.592,0.404-1.88,0.986c-0.198,0.411-0.252,0.577-0.305,0.741c-0.053,0.188-0.107,0.241-0.182,0.251
					c-0.055,0.008-0.093-0.055-0.095-0.19c-0.003-0.225,0.338-2.212,0.371-2.398c0.035-0.14,0.105-0.443,0.179-0.453
					c0.13-0.018,0.319,0.181,0.82,0.157c0.54-0.007,1.244-0.062,1.466-0.093c2.315-0.33,4.625-0.677,6.93-1.041
					c0.59-0.093,1.013-0.206,1.306-0.321c0.275-0.089,0.44-0.182,0.513-0.194c0.092-0.015,0.094,0.118,0.097,0.253
					c0.014,0.67-0.01,2.218-0.005,2.465c0.004,0.2-0.049,0.299-0.122,0.311c-0.092,0.016-0.13-0.046-0.156-0.355
					c-0.001-0.089-0.021-0.154-0.023-0.242c-0.069-0.662-0.521-1.101-2.293-0.867c-0.775,0.099-1.551,0.219-2.327,0.315
					C179.418,133.042,179.47,136.202,179.515,139.362z"/>
			</g>
		</g>
		<linearGradient id="SVGID_2_" gradientUnits="userSpaceOnUse" x1="127.9108" y1="25.2084" x2="94.0779" y2="218.2134">
			<stop  offset="0" style="stop-color:#C9C9C9"/>
			<stop  offset="0.0333" style="stop-color:#CECECE"/>
			<stop  offset="0.2216" style="stop-color:#E4E4E4"/>
			<stop  offset="0.3839" style="stop-color:#F1F1F1"/>
			<stop  offset="0.5007" style="stop-color:#F6F6F6"/>
			<stop  offset="0.5908" style="stop-color:#F2F2F2"/>
			<stop  offset="0.7073" style="stop-color:#E6E6E6"/>
			<stop  offset="0.8376" style="stop-color:#D2D2D2"/>
			<stop  offset="0.9106" style="stop-color:#C4C4C4"/>
		</linearGradient>
		<path fill="url(#SVGID_2_)" d="M192.994,20.402c-3.383,2.089-6.814,4.277-10.29,6.554c12.219,9.388,24.709,19.001,37.396,28.594
			c-8.321,1.625-16.752,3.645-25.279,5.997c-23.77-10.137-47.148-19.394-70.008-26.914c-22.022-1.655-43.947-1.659-65.773,0.139
			C46.511,36.5,33.984,38.79,21.46,41.645c13.522-0.261,27.203,0.389,41.027,1.805c-12.417,1.533-24.834,3.568-37.251,6.104
			c8.42,0.366,16.906,1.069,25.453,2.069c-10.654,6.686-21.443,13.504-32.336,20.325c11.275-1.945,22.549-3.565,33.824-4.86
			c9.087-5.725,18.088-11.39,26.982-16.912c-4.334-0.218-8.66-0.375-12.979-0.467c5.311-3.417,10.584-6.793,15.815-10.11
			c24.961,7.336,50.702,17.251,76.98,28.362c-19.424,5.258-39.17,11.709-59.152,18.808c9.425,8.36,19.02,16.971,28.712,25.669
			c17.608-1.585,35.177-2.755,52.702-3.399c-2.691-4.898-5.38-9.821-8.063-14.763c10.196-6.084,20.24-11.797,30.082-16.984
			c7.668-6.598,15.127-12.778,22.324-18.427c-0.272-9.744-0.715-19.439-1.339-29.083C213.803,26.245,203.387,23.113,192.994,20.402z
			"/>
	</g>
</g>
</svg>
